<?xml version="1.0" standalone="no"?>
<!DOCTYPE svg PUBLIC "-//W3C//DTD SVG 20010904//EN"
 "http://www.w3.org/TR/2001/REC-SVG-20010904/DTD/svg10.dtd">
<svg version="1.0" xmlns="http://www.w3.org/2000/svg"
 width="460.000000pt" height="460.000000pt" viewBox="0 0 460.000000 460.000000"
 preserveAspectRatio="xMidYMid meet">
<metadata>
Created by potrace 1.14, written by Peter Selinger 2001-2017
</metadata>
<g transform="translate(0.000000,460.000000) scale(0.100000,-0.100000)"
fill="#000000" stroke="none">
<path d="M1 2918 c0 -1559 1 -1681 16 -1650 13 25 21 31 36 26 16 -5 19 -3 14
10 -4 9 -3 16 2 16 14 0 20 -64 7 -79 -8 -11 -8 -13 0 -8 16 9 27 -22 14 -38
-6 -7 -8 -25 -4 -41 5 -19 4 -25 -5 -20 -6 4 -11 2 -11 -5 0 -7 10 -9 30 -5
17 3 30 1 30 -4 0 -6 -7 -10 -15 -10 -19 0 -19 -16 0 -24 11 -4 14 -15 9 -41
-3 -21 -1 -35 5 -35 10 0 17 -26 25 -95 2 -16 9 -55 15 -85 25 -131 29 -168
25 -210 -8 -87 -25 -101 -53 -45 -11 23 -11 32 -1 48 10 17 8 23 -16 44 -19
16 -29 35 -30 54 -1 16 -10 39 -20 50 -13 15 -15 22 -6 28 12 7 6 33 -19 96
-11 28 -15 78 -6 92 4 6 3 14 -3 18 -5 3 -10 16 -10 28 0 12 -7 31 -15 41 -13
18 -15 -44 -15 -527 l0 -547 450 0 c393 0 450 2 450 15 0 8 5 15 11 15 6 0 9
-7 5 -15 -3 -9 0 -15 9 -15 8 0 12 6 9 14 -3 8 -1 17 5 21 7 3 11 -2 11 -14 0
-12 5 -21 10 -21 8 0 16 75 11 104 -1 5 4 13 10 17 10 6 10 11 0 23 -8 9 -10
23 -6 33 4 10 8 43 10 73 2 30 11 120 20 200 9 80 20 189 25 242 5 54 12 109
16 123 4 18 2 25 -8 25 -9 0 -14 -14 -15 -42 -3 -68 -4 -91 -10 -117 -3 -20
-6 -22 -14 -10 -5 7 -6 28 -3 44 5 23 3 27 -6 19 -6 -6 -13 -27 -15 -45 -14
-149 -19 -179 -27 -179 -5 0 -6 28 -3 63 3 34 8 91 11 127 3 36 10 70 16 77 5
7 7 17 4 22 -4 5 -2 12 4 16 6 4 10 -6 10 -24 0 -56 17 -32 24 31 8 82 11 100
19 118 3 8 11 38 16 65 5 28 14 66 19 85 16 58 14 -5 -3 -80 -17 -75 -18 -103
-6 -96 4 3 13 38 20 78 6 40 16 80 21 88 15 24 12 -46 -5 -110 -8 -30 -15 -66
-14 -80 l0 -25 15 28 c8 15 16 27 18 27 2 0 2 -35 0 -77 -3 -86 -1 -83 16 25
13 78 37 104 27 27 -4 -25 -2 -47 3 -50 6 -4 10 7 10 24 0 17 5 31 11 31 9 0
10 -25 7 -88 -3 -48 -3 -77 1 -64 9 33 25 31 32 -4 l7 -29 2 30 c1 17 3 35 4
40 1 6 6 30 11 54 6 34 10 40 17 26 6 -9 7 -27 4 -41 -4 -14 -2 -24 4 -24 5 0
10 14 10 32 0 17 3 28 6 25 4 -4 6 -48 6 -99 l-1 -93 14 60 c7 33 14 84 14
113 1 48 8 62 24 46 3 -3 2 -16 -3 -28 -12 -33 -16 -186 -5 -186 6 0 11 12 12
28 2 40 14 106 20 112 6 6 -4 -175 -14 -232 -3 -21 -2 -38 3 -38 5 0 10 10 10
23 3 50 28 196 33 191 3 -2 4 -42 2 -87 -1 -45 0 -79 3 -76 6 6 18 83 20 128
1 13 7 26 15 29 10 3 12 -2 8 -19 -14 -59 -19 -159 -8 -159 6 0 12 10 12 23 1
12 2 27 4 32 1 6 3 16 3 23 1 6 6 12 12 12 6 0 7 -20 4 -47 -2 -27 -7 -67 -9
-90 -3 -24 -1 -43 4 -43 5 0 12 30 16 68 4 37 11 81 15 97 l8 30 1 -32 c1 -19
6 -33 14 -33 8 0 9 -2 1 -8 -6 -4 -14 -32 -17 -62 -3 -30 -9 -65 -13 -77 -4
-14 -2 -23 4 -23 6 0 14 17 18 38 10 48 11 52 12 85 1 15 7 27 13 27 11 0 8
-71 -8 -157 -4 -26 -2 -33 11 -33 9 0 16 5 16 10 0 6 -4 10 -8 10 -8 0 -5 65
5 90 9 22 10 28 12 52 0 13 5 18 9 13 5 -6 6 -41 3 -78 -5 -47 -3 -71 5 -78 8
-6 14 -4 18 6 3 9 2 13 -4 10 -16 -10 -11 51 5 65 13 11 15 6 15 -39 0 -32 4
-50 10 -46 6 3 7 17 4 30 -3 13 -2 29 2 36 4 7 8 37 10 67 1 30 6 58 11 63 4
4 6 -28 4 -71 -2 -54 0 -80 8 -80 6 0 11 12 12 28 2 86 18 139 20 66 1 -21 1
-47 0 -57 -1 -9 3 -17 8 -17 6 0 11 15 11 33 0 40 10 77 20 77 5 0 6 -25 3
-55 l-6 -55 34 -1 c45 -2 94 -6 154 -13 218 -23 795 -42 795 -25 0 3 -118 9
-262 12 -145 3 -333 12 -418 21 -85 8 -181 17 -213 19 -72 5 -84 15 -67 56 13
32 24 39 35 21 3 -5 12 -7 20 -4 11 5 149 -6 255 -20 45 -6 303 -19 392 -20
140 -2 102 11 -54 17 -79 4 -181 11 -228 17 -47 5 -119 12 -160 16 -41 3 -91
7 -110 8 -51 4 -100 16 -100 25 0 4 28 4 63 -1 34 -4 96 -10 137 -13 41 -3
109 -10 150 -14 41 -5 183 -9 315 -9 l240 1 -170 7 c-142 7 -257 18 -370 35
-11 2 -24 4 -28 4 -5 1 -5 6 -2 11 4 7 12 7 25 0 10 -6 34 -10 52 -9 18 1 147
1 287 0 140 0 257 2 260 4 2 3 -81 6 -185 6 -104 1 -193 2 -199 3 -5 1 -41 6
-78 10 -83 10 -80 19 5 18 320 -7 829 -7 983 -1 245 11 389 19 393 23 5 6
-220 15 -263 11 -22 -2 -40 -4 -40 -5 0 -13 -968 -20 -982 -6 -3 3 -4 8 -2 10
2 2 198 7 434 10 394 5 530 9 640 20 22 2 81 5 130 6 l90 3 -60 8 c-57 8 -153
7 -405 -8 -159 -9 -198 -10 -420 -12 -289 -3 -320 -2 -320 8 0 16 72 21 425
27 187 3 363 7 390 9 253 14 317 20 290 26 -40 8 -340 1 -435 -11 -41 -5 -187
-10 -325 -11 -303 -2 -325 -1 -325 10 0 12 112 20 390 26 129 3 323 11 430 17
107 6 208 10 224 10 16 -1 26 2 22 5 -7 7 -352 6 -421 -1 -77 -9 -261 -16
-413 -17 -138 0 -174 3 -161 15 9 8 131 16 319 21 107 3 229 7 270 10 41 2
154 8 250 12 143 6 161 9 102 13 -41 3 -146 2 -235 -2 -410 -16 -652 -19 -641
-8 18 18 474 44 801 45 85 0 113 6 81 17 -18 6 -262 1 -318 -6 -81 -10 -535
-19 -527 -10 5 5 54 14 110 20 l102 12 -98 0 c-54 -1 -101 2 -104 6 -6 6 41
11 78 8 8 -1 35 5 60 13 l44 14 -65 1 -65 2 60 12 c33 7 110 14 170 15 61 2
112 5 114 7 2 2 -48 4 -112 4 -64 0 -117 4 -117 9 0 9 77 20 167 23 28 1 49 6
46 11 -2 4 -39 7 -81 6 -43 -1 -104 -1 -137 1 l-60 3 70 8 c39 4 135 12 215
18 154 12 156 12 267 36 40 9 77 14 82 10 5 -3 12 -1 16 5 10 17 -67 9 -165
-16 -44 -11 -340 -15 -340 -4 0 6 26 11 58 12 70 3 125 6 132 8 3 1 23 3 45 5
36 3 68 8 235 35 l45 7 -55 2 c-30 0 -82 -6 -115 -14 -69 -17 -300 -20 -310
-5 -4 6 6 10 22 11 55 1 333 28 373 36 17 3 30 10 30 15 0 6 -7 7 -16 4 -54
-21 -354 -34 -354 -15 0 13 46 20 180 26 74 3 144 9 155 14 11 4 -19 5 -66 2
-96 -6 -172 3 -148 18 8 5 25 9 39 10 18 1 20 3 7 6 -11 3 -16 10 -13 20 3 8
6 18 6 23 0 4 10 10 22 13 17 5 19 9 9 21 -10 12 -8 16 8 21 15 5 21 15 21 37
0 27 3 30 24 24 20 -5 25 -1 29 22 7 35 2 42 -31 42 -15 0 -34 5 -42 11 -12 8
-10 9 8 4 13 -4 22 -2 22 5 0 6 10 8 28 4 22 -5 25 -4 15 7 -18 18 -16 32 3
25 8 -3 24 3 36 14 19 18 20 21 6 37 -31 36 -41 79 -26 107 10 20 10 20 -8 6
-10 -7 -24 -20 -31 -28 -18 -21 -54 -6 -49 21 1 12 1 16 -1 9 -11 -31 -20 -6
-19 52 1 46 4 62 14 59 6 -3 12 0 12 6 0 6 -4 11 -10 11 -5 0 -10 5 -10 11 0
6 8 8 19 4 16 -5 18 -2 14 15 -5 20 6 25 52 21 42 -3 131 -35 161 -57 18 -13
63 -30 102 -38 38 -8 123 -35 188 -61 127 -49 129 -50 216 -89 31 -14 64 -26
72 -26 8 0 77 -32 153 -70 76 -39 172 -80 213 -91 41 -12 83 -25 92 -30 25
-13 31 -11 24 6 -5 14 20 74 37 86 37 27 37 7 37 1540 l0 1479 -2300 0 -2300
0 1 -1682z m2989 1518 c0 -3 -4 -8 -10 -11 -5 -3 -10 -1 -10 4 0 6 5 11 10 11
6 0 10 -2 10 -4z m-175 -166 c9 -10 20 -19 24 -18 3 0 8 -1 11 -2 13 -7 110
-5 110 2 0 16 20 7 50 -22 17 -16 37 -30 45 -30 8 0 15 -6 15 -14 0 -14 27
-31 44 -27 5 1 6 -5 3 -13 -7 -17 23 -46 49 -47 18 0 18 -1 1 -8 -16 -6 -14
-11 17 -43 20 -21 36 -41 36 -47 0 -5 4 -11 8 -13 9 -3 61 -90 79 -130 20 -45
44 -150 50 -218 3 -36 11 -68 16 -72 7 -4 6 -12 -3 -22 -9 -11 -11 -34 -7 -74
3 -31 2 -48 -2 -38 -11 30 -22 3 -16 -41 7 -54 24 -91 46 -98 25 -8 31 -35 19
-86 -6 -24 -12 -57 -15 -74 -2 -16 -8 -50 -14 -75 -14 -61 -3 -240 15 -247 8
-3 12 -9 9 -13 -3 -4 -2 -29 1 -54 5 -35 10 -44 19 -36 26 21 25 -20 0 -48
-15 -16 -23 -34 -19 -44 3 -10 1 -18 -5 -18 -6 0 -11 14 -11 31 0 27 -2 30
-15 19 -8 -7 -15 -23 -15 -36 0 -14 -5 -22 -12 -20 -7 1 -10 1 -5 -1 4 -3 7
-11 7 -18 0 -14 49 -65 62 -65 4 0 3 11 -2 25 -5 14 -7 32 -4 40 8 19 44 20
44 0 0 -8 -4 -15 -10 -15 -5 0 -10 -18 -10 -41 0 -39 -17 -69 -39 -69 -6 0
-15 -8 -20 -19 -9 -15 -7 -18 7 -17 14 1 17 -7 15 -48 -3 -69 -34 -81 -56 -22
-4 10 -10 16 -13 13 -12 -12 -54 41 -53 69 0 16 3 23 6 17 2 -7 13 -13 24 -13
12 0 16 -5 13 -15 -4 -8 -2 -15 3 -15 33 0 15 46 -23 60 -30 12 -57 2 -50 -17
3 -8 2 -12 -2 -9 -4 2 -8 -24 -8 -59 -1 -34 -7 -71 -13 -81 -6 -12 -11 -14
-11 -5 0 11 -3 11 -15 1 -16 -13 -21 -1 -6 16 14 15 31 74 21 74 -5 0 -11 -9
-15 -20 -3 -11 -12 -19 -18 -17 -7 1 -13 -10 -15 -25 -2 -16 -7 -28 -11 -28
-5 0 -11 -9 -14 -21 -4 -13 -10 -18 -18 -13 -9 5 -11 1 -7 -14 4 -15 2 -22 -8
-22 -23 0 -16 -39 14 -84 15 -22 31 -45 34 -51 3 -5 -1 -17 -10 -25 -14 -13
-15 -12 -9 4 9 24 -12 64 -24 45 -6 -10 -9 -11 -9 -1 0 6 -5 12 -11 12 -6 0
-8 -9 -4 -21 6 -19 4 -21 -14 -16 -18 4 -20 3 -10 -9 6 -8 9 -17 7 -20 -9 -9
-38 26 -38 46 0 10 -4 21 -9 25 -16 9 -4 -33 20 -71 21 -35 21 -52 -1 -39 -6
4 -16 18 -21 32 -14 38 -21 22 -7 -17 9 -26 9 -35 -1 -38 -7 -2 -23 -16 -37
-30 -13 -15 -24 -21 -24 -14 0 6 5 12 10 12 6 0 10 5 10 11 0 6 -7 9 -15 5 -8
-3 -15 -2 -15 2 0 4 -12 8 -28 8 -15 1 -21 -1 -15 -3 10 -3 9 -8 -2 -19 -8 -9
-19 -13 -24 -10 -5 3 -7 -4 -4 -15 5 -16 2 -20 -8 -17 -8 3 -13 11 -11 17 1 7
-5 22 -14 34 -16 22 -16 22 -10 -5 6 -27 -6 -39 -19 -18 -4 6 -10 8 -15 5 -5
-3 -16 2 -24 11 -15 14 -16 14 -16 -3 0 -14 -2 -15 -9 -4 -5 8 -16 11 -24 8
-12 -4 -15 -1 -11 11 2 9 -2 4 -9 -12 l-14 -29 -11 32 c-6 17 -14 31 -18 31
-3 0 -4 -7 -1 -14 6 -15 -29 -33 -40 -22 -4 3 1 6 10 6 21 0 21 7 3 26 -16 15
-36 19 -36 6 0 -4 -9 -8 -21 -8 -16 0 -17 3 -7 11 7 6 19 20 26 33 10 18 10
22 -3 22 -18 0 -19 11 -2 30 6 8 0 4 -15 -9 -15 -13 -27 -26 -26 -30 4 -36 -4
-71 -17 -71 -17 0 -20 16 -5 25 6 3 10 23 10 43 0 28 -3 33 -12 24 -22 -22
-41 -14 -34 13 5 18 2 25 -9 25 -8 0 -15 -4 -15 -10 0 -5 -11 -10 -25 -10 -31
0 -33 16 -3 23 17 5 19 9 9 21 -8 10 -9 16 -1 21 15 9 12 25 -4 19 -8 -3 -17
-15 -20 -27 -3 -12 -8 -18 -12 -14 -4 4 -18 0 -32 -9 -13 -8 -27 -12 -30 -9
-4 4 3 14 16 22 12 9 22 24 22 34 0 11 5 19 10 19 6 0 10 5 10 11 0 5 -5 7
-10 4 -13 -8 -40 19 -40 39 0 8 -5 18 -12 22 -8 5 -9 0 -6 -14 4 -12 2 -22 -3
-22 -5 0 -9 -8 -9 -18 0 -10 -7 -27 -15 -38 -13 -18 -14 -18 -8 5 4 16 2 22
-4 18 -7 -5 -9 1 -5 15 3 14 2 19 -6 14 -8 -5 -12 0 -12 13 0 15 -5 19 -16 14
-18 -7 -34 12 -34 40 0 11 -6 33 -14 50 -8 18 -17 41 -19 52 -4 16 -5 15 -6
-5 -1 -19 -7 -26 -21 -26 -13 0 -19 6 -17 16 2 8 9 14 15 12 7 -1 12 7 12 18
0 11 7 20 15 20 17 0 18 6 5 35 -8 19 -9 19 -9 -3 -1 -13 -5 -20 -11 -17 -5 3
-7 19 -3 35 3 16 2 37 -2 47 -12 27 -12 37 -1 52 8 11 8 13 -1 7 -9 -5 -13 1
-13 20 0 22 -2 24 -14 15 -12 -10 -15 -6 -18 26 -2 32 -7 38 -26 39 -32 2 -37
10 -18 29 20 21 21 39 1 31 -11 -4 -15 1 -15 19 0 14 -4 25 -10 25 -5 0 -10 9
-10 20 0 18 -38 49 -42 33 0 -4 -4 12 -7 37 -4 25 -4 50 -2 55 3 6 6 39 7 75
1 36 -1 58 -3 48 -6 -23 -30 -30 -53 -15 -20 12 -22 19 -22 72 2 98 6 125 24
125 13 0 18 12 23 48 9 71 20 91 45 85 11 -3 23 -16 26 -29 10 -38 -6 -134
-22 -141 -9 -3 -14 -21 -14 -50 0 -38 2 -43 14 -34 7 6 16 25 20 41 6 32 33
51 45 32 6 -10 51 18 51 33 0 10 28 35 39 35 6 0 25 12 42 27 17 15 42 33 57
39 15 7 22 13 15 13 -6 1 -20 4 -30 7 -13 4 -14 3 -5 -3 9 -7 -1 -10 -30 -11
-24 0 -50 -2 -58 -4 -11 -2 -15 6 -14 32 0 41 -15 56 -33 32 -11 -15 -14 -15
-23 -2 -8 12 -10 10 -10 -10 0 -19 -3 -21 -12 -12 -7 7 -21 12 -31 12 -10 0
-21 9 -24 20 -3 11 -9 17 -14 14 -5 -3 -6 9 -3 26 5 24 3 30 -10 30 -14 0 -15
3 -5 23 18 33 17 70 -3 87 -9 8 -19 26 -20 40 -2 14 -7 31 -11 38 -5 7 -6 51
-3 98 5 76 3 85 -11 80 -16 -7 -16 -4 3 122 2 18 0 32 -6 32 -5 0 7 16 27 36
40 37 92 64 125 64 11 0 26 7 35 15 8 8 19 13 24 9 5 -3 19 6 31 21 18 23 27
26 54 22 23 -4 33 -2 31 6 -2 14 49 16 102 5 36 -7 90 12 82 29 -3 4 9 12 25
18 34 11 44 23 37 42 -7 17 7 16 31 -2 11 -8 29 -12 39 -9 11 4 23 0 28 -7 8
-12 11 -11 19 1 8 13 11 12 24 -5 15 -19 15 -19 16 10 1 17 4 24 7 17 4 -10 8
-10 19 -1 10 8 14 8 14 0 0 -16 24 -9 32 9 6 13 7 13 7 -1 1 -12 8 -15 27 -11
16 3 23 9 20 18 -8 20 8 17 29 -6z m-360 -31 c11 -17 2 -18 -19 -3 -17 12 -17
14 -4 14 9 0 20 -5 23 -11z m-903 -964 c14 -32 7 -39 -26 -24 -28 13 -34 34
-13 42 22 10 27 7 39 -18z m-28 -31 c14 -5 13 -10 -1 -47 -21 -53 -22 -55 -34
-37 -12 18 -3 -84 13 -147 16 -64 3 -74 -23 -18 -30 65 -33 187 -6 228 18 28
25 31 51 21z m91 -90 c10 -11 14 -25 11 -40 -3 -12 -2 -25 3 -28 4 -3 7 -26 6
-51 -1 -38 -6 -49 -26 -59 -21 -10 -24 -19 -22 -59 1 -26 0 -47 -2 -47 -2 0
-13 16 -26 36 -20 33 -21 45 -16 132 3 55 10 98 16 100 6 2 11 10 11 18 0 19
25 18 45 -2z m400 -334 c3 -5 1 -10 -4 -10 -6 0 -11 5 -11 10 0 6 2 10 4 10 3
0 8 -4 11 -10z m-299 -89 c-3 -5 -14 -11 -25 -14 -14 -3 -18 -1 -14 9 3 8 14
14 25 14 10 0 17 -4 14 -9z m1751 -13 c-3 -8 -6 -5 -6 6 -1 11 2 17 5 13 3 -3
4 -12 1 -19z m-1807 -79 c0 -6 -4 -7 -10 -4 -5 3 -10 11 -10 16 0 6 5 7 10 4
6 -3 10 -11 10 -16z m-702 -137 c23 -13 30 -46 11 -58 -8 -4 -10 -27 -6 -64 3
-32 2 -63 -3 -69 -10 -18 -56 -3 -68 22 -6 12 -11 17 -11 10 -1 -9 -9 -9 -31
-1 -17 5 -36 8 -44 5 -24 -9 -39 10 -47 62 -10 66 -5 79 37 87 19 3 36 9 38
13 7 11 100 5 124 -7z m1186 -78 c3 -8 2 -12 -4 -9 -6 3 -10 10 -10 16 0 14 7
11 14 -7z m1272 -11 c-10 -10 -19 5 -10 18 6 11 8 11 12 0 2 -7 1 -15 -2 -18z
m-1286 -23 c0 -5 -2 -10 -4 -10 -3 0 -8 5 -11 10 -3 6 -1 10 4 10 6 0 11 -4
11 -10z m-644 -35 c10 -42 -1 -57 -43 -53 -31 2 -39 7 -41 26 -6 39 5 52 42
52 30 0 37 -4 42 -25z m1792 -94 c3 -8 -1 -12 -9 -9 -7 2 -15 10 -17 17 -3 8
1 12 9 9 7 -2 15 -10 17 -17z m112 5 c0 -8 -4 -18 -10 -21 -5 -3 -10 -15 -10
-26 0 -10 -7 -19 -15 -19 -8 0 -15 4 -15 9 0 5 7 14 15 21 8 7 15 21 15 31 0
11 5 19 10 19 6 0 10 -6 10 -14z m-2345 -9 c13 -1 21 -11 23 -26 3 -17 0 -21
-10 -15 -7 5 -17 9 -23 10 -27 3 -54 18 -59 31 -5 12 -1 14 21 9 16 -4 37 -8
48 -9z m1095 -27 c0 -5 -5 -10 -11 -10 -5 0 -7 5 -4 10 3 6 8 10 11 10 2 0 4
-4 4 -10z m-1187 -41 c7 -11 4 -24 -8 -42 -21 -33 -40 -35 -31 -4 3 12 6 33 6
45 0 26 17 26 33 1z m2312 -9 c3 -5 1 -10 -4 -10 -6 0 -11 5 -11 10 0 6 2 10
4 10 3 0 8 -4 11 -10z m99 -6 c3 -8 2 -12 -3 -9 -5 3 -12 1 -16 -5 -3 -5 -15
-10 -26 -10 -18 0 -18 1 -1 19 21 24 38 26 46 5z m-1034 -33 c0 -12 -20 -25
-27 -18 -7 7 6 27 18 27 5 0 9 -4 9 -9z m1015 -71 c14 0 25 -4 25 -10 0 -5
-10 -10 -23 -10 -20 0 -23 -4 -19 -29 2 -16 -1 -37 -7 -48 -10 -17 -10 -16
-11 5 0 12 -4 22 -10 22 -5 0 -10 7 -10 16 0 8 5 12 10 9 7 -4 8 8 5 37 -5 34
-4 39 5 26 6 -10 22 -18 35 -18z m10 20 c3 -5 1 -10 -4 -10 -6 0 -11 5 -11 10
0 6 2 10 4 10 3 0 8 -4 11 -10z m-85 -26 c0 -8 -4 -12 -10 -9 -5 3 -10 10 -10
16 0 5 5 9 10 9 6 0 10 -7 10 -16z m-813 -10 c5 -14 -35 -26 -43 -13 -8 14 6
30 24 27 8 -2 17 -8 19 -14z m59 -29 c-3 -8 -10 -15 -16 -15 -14 0 -12 37 3
43 15 5 21 -8 13 -28z m724 -24 c0 -40 -17 -48 -22 -11 -3 17 -2 32 0 35 13
13 22 2 22 -24z m-2363 -37 c-3 -3 -16 -4 -29 -2 l-23 5 25 10 c23 10 41 1 27
-13z m1619 -21 c-8 -9 -37 18 -30 28 3 5 12 2 21 -6 8 -9 13 -19 9 -22z m64
12 c0 -8 -2 -15 -4 -15 -2 0 -6 7 -10 15 -3 8 -1 15 4 15 6 0 10 -7 10 -15z
m455 5 c3 -5 1 -10 -4 -10 -6 0 -11 5 -11 10 0 6 2 10 4 10 3 0 8 -4 11 -10z
m-2147 -14 c25 -4 42 -2 42 4 0 5 4 10 8 10 5 0 14 -22 21 -49 18 -69 5 -89
-54 -89 -32 0 -45 4 -45 14 0 8 -10 14 -25 14 -35 0 -59 47 -42 83 8 18 18 25
32 22 11 -2 39 -6 63 -9z m1217 -24 c-8 -8 -25 10 -25 26 0 13 2 13 14 -4 8
-10 13 -21 11 -22z m585 17 c0 -5 -4 -9 -10 -9 -5 0 -10 7 -10 16 0 8 5 12 10
9 6 -3 10 -10 10 -16z m510 -10 c0 -18 -18 -9 -23 12 -4 16 -3 18 9 8 8 -6 14
-15 14 -20z m-460 -18 c0 -14 -6 -19 -20 -18 -23 1 -25 8 -8 25 17 17 28 15
28 -7z m430 -13 c0 -5 -4 -8 -10 -8 -5 0 -10 10 -10 23 0 18 2 19 10 7 5 -8
10 -18 10 -22z m-877 -10 c-7 -38 -13 -49 -13 -25 0 10 -7 17 -15 17 -8 0 -15
4 -15 10 0 5 7 7 15 4 9 -4 15 0 15 10 0 9 4 16 10 16 5 0 7 -14 3 -32z m564
10 c-3 -8 -6 -5 -6 6 -1 11 2 17 5 13 3 -3 4 -12 1 -19z m-737 -8 c0 -5 -4
-10 -10 -10 -5 0 -10 5 -10 10 0 6 5 10 10 10 6 0 10 -4 10 -10z m770 -4 c0
-22 -11 -46 -21 -46 -6 0 -6 7 -1 18 5 9 7 23 5 30 -3 6 0 12 6 12 6 0 11 -6
11 -14z m-225 -6 c-3 -5 -12 -10 -18 -10 -7 0 -6 4 3 10 19 12 23 12 15 0z
m540 -29 c-3 -11 -1 -22 5 -26 13 -8 13 -25 0 -25 -12 0 -24 45 -15 59 10 18
17 12 10 -8z m-596 -43 c-7 -13 -14 -18 -16 -11 -3 7 2 19 9 27 18 20 22 12 7
-16z m218 6 c-3 -3 -12 -4 -19 -1 -8 3 -5 6 6 6 11 1 17 -2 13 -5z m358 -41
c-1 -42 -10 -63 -28 -63 -7 0 -4 7 6 14 18 14 24 32 7 21 -11 -7 -14 57 -4 68
13 13 20 -2 19 -40z m-35 -3 c0 -5 -5 -10 -11 -10 -5 0 -7 5 -4 10 3 6 8 10
11 10 2 0 4 -4 4 -10z m-1053 -32 c-3 -7 -5 -2 -5 12 0 14 2 19 5 13 2 -7 2
-19 0 -25z m526 12 c-5 -19 -23 -29 -23 -12 0 7 20 32 26 32 1 0 0 -9 -3 -20z
m-337 -88 c-12 -11 -17 7 -9 34 l8 29 3 -28 c2 -16 1 -31 -2 -35z m74 23 c-5
-6 -7 -15 -3 -18 3 -4 1 -7 -5 -7 -7 0 -12 11 -12 25 0 18 4 23 15 19 11 -5
13 -10 5 -19z m50 15 c0 -5 -2 -10 -4 -10 -3 0 -8 5 -11 10 -3 6 -1 10 4 10 6
0 11 -4 11 -10z m844 -21 c-3 -5 -20 -9 -37 -9 -29 1 -30 2 -14 14 19 15 61
10 51 -5z m-943 -22 c-8 -8 -11 -7 -11 4 0 9 3 19 7 23 4 4 9 2 11 -4 3 -7 -1
-17 -7 -23z m88 16 c-12 -3 -15 -11 -11 -26 3 -12 1 -19 -3 -14 -5 4 -10 16
-12 27 -2 15 3 20 20 19 15 -1 17 -3 6 -6z m751 -8 c0 -8 5 -15 10 -15 6 0 0
-11 -12 -24 -13 -13 -27 -20 -31 -17 -10 10 2 43 13 36 5 -3 6 4 3 15 -3 11 0
20 6 20 6 0 11 -7 11 -15z m170 -6 c0 -5 -4 -9 -10 -9 -5 0 -10 7 -10 16 0 8
5 12 10 9 6 -3 10 -10 10 -16z m-1072 -14 c-3 -3 -9 2 -12 12 -6 14 -5 15 5 6
7 -7 10 -15 7 -18z m1000 -2 c2 -8 -6 -13 -22 -13 -25 0 -33 10 -19 24 10 10
36 3 41 -11z m60 -15 c-6 -18 -28 -21 -28 -4 0 9 7 16 16 16 9 0 14 -5 12 -12z
m-578 -8 c0 -5 -4 -10 -10 -10 -5 0 -10 5 -10 10 0 6 5 10 10 10 6 0 10 -4 10
-10z m280 -4 c0 -2 -7 -7 -16 -10 -8 -3 -12 -2 -9 4 6 10 25 14 25 6z m213
-41 c-41 -32 -51 -14 -15 28 14 16 17 16 25 2 6 -12 3 -21 -10 -30z m-401 -28
c12 -3 17 -10 13 -17 -5 -8 -12 -6 -25 5 -10 9 -26 15 -36 13 -11 -2 -20 4
-22 15 -2 10 3 17 12 17 9 0 16 8 17 18 1 9 6 3 11 -15 6 -17 19 -34 30 -36z
m-112 43 c0 -5 -4 -10 -10 -10 -5 0 -10 5 -10 10 0 6 5 10 10 10 6 0 10 -4 10
-10z m180 0 c0 -5 -4 -10 -10 -10 -5 0 -10 5 -10 10 0 6 5 10 10 10 6 0 10 -4
10 -10z m-625 -10 c3 -5 1 -10 -4 -10 -6 0 -11 5 -11 10 0 6 2 10 4 10 3 0 8
-4 11 -10z m700 1 c3 -5 1 -12 -5 -16 -5 -3 -10 1 -10 9 0 18 6 21 15 7z m47
-22 c-7 -23 -32 -39 -32 -19 0 6 4 10 9 10 5 0 11 10 14 22 4 12 8 20 11 17 3
-3 2 -16 -2 -30z m133 21 c3 -6 -4 -10 -17 -10 -18 0 -20 2 -8 10 19 12 18 12
25 0z m-585 -20 c0 -5 -4 -10 -10 -10 -5 0 -10 5 -10 10 0 6 5 10 10 10 6 0
10 -4 10 -10z m44 -40 c14 0 67 -39 54 -40 -21 -1 -88 44 -88 59 1 14 2 14 11
-1 5 -10 16 -18 23 -18z m96 4 c0 -8 -4 -12 -10 -9 -5 3 -10 10 -10 16 0 5 5
9 10 9 6 0 10 -7 10 -16z m100 1 c11 -13 10 -14 -4 -9 -9 3 -16 10 -16 15 0
13 6 11 20 -6z m490 6 c0 -16 -23 -25 -59 -22 -42 2 -51 9 -31 21 20 13 90 13
90 1z m-2701 -38 c0 -10 -4 -27 -9 -38 -7 -16 -9 -13 -9 18 -1 20 4 37 9 37 6
0 10 -8 9 -17z m-51 -45 c-15 -62 -27 -69 -15 -9 5 28 13 51 17 51 4 0 3 -19
-2 -42z m2618 35 c-11 -11 -48 -14 -41 -3 3 5 16 10 27 10 12 0 18 -3 14 -7z
m-2339 -38 c-1 -36 -17 -51 -17 -16 0 19 9 51 15 51 2 0 3 -16 2 -35z m1674
13 c-5 -13 -17 -24 -27 -25 -17 -3 -17 -2 1 6 19 9 19 10 -4 10 -20 1 -21 3
-11 16 7 8 21 15 31 15 15 0 17 -4 10 -22z m384 12 c3 -5 1 -10 -4 -10 -6 0
-11 5 -11 10 0 6 2 10 4 10 3 0 8 -4 11 -10z m-445 -4 c0 -3 -4 -8 -10 -11 -5
-3 -10 -1 -10 4 0 6 5 11 10 11 6 0 10 -2 10 -4z m575 -16 c4 -6 -5 -10 -20
-10 -15 0 -24 4 -20 10 3 6 12 10 20 10 8 0 17 -4 20 -10z m30 0 c3 -5 1 -10
-4 -10 -6 0 -11 5 -11 10 0 6 2 10 4 10 3 0 8 -4 11 -10z m38 -34 c-3 -4 -9
-2 -14 5 -13 22 -11 31 5 17 8 -7 12 -17 9 -22z m-2586 -8 c-3 -7 -5 -2 -5 12
0 14 2 19 5 13 2 -7 2 -19 0 -25z m113 -79 c-6 -57 -14 -121 -19 -141 -5 -20
-6 -39 -3 -42 12 -13 22 -4 22 19 0 14 5 25 11 25 8 0 10 -18 6 -57 -6 -56 -5
-58 18 -59 27 -2 35 20 11 29 -16 6 -14 58 5 165 15 85 34 68 20 -18 -11 -67
-8 -95 4 -38 10 44 16 53 26 37 13 -20 25 2 35 65 l8 51 6 -60 c3 -34 8 -50
10 -37 3 12 10 21 15 20 6 -2 9 -10 7 -18 -2 -8 -4 -21 -4 -28 -1 -6 -8 -11
-17 -10 -18 4 -40 -63 -33 -101 5 -23 6 -24 13 -6 4 11 8 34 8 52 1 31 15 52
24 36 6 -11 -19 -129 -32 -150 -9 -15 -10 -13 -5 11 5 22 4 27 -7 24 -16 -6
-14 -49 3 -59 7 -5 9 -30 6 -73 -3 -37 -2 -63 3 -60 5 3 9 20 9 37 1 32 1 32
14 9 10 -20 10 -33 -1 -75 -8 -29 -12 -67 -9 -84 3 -24 1 -33 -9 -33 -12 0
-13 12 -8 62 4 45 3 59 -5 54 -7 -4 -12 -32 -12 -65 0 -32 -6 -76 -13 -97 -16
-45 -20 -114 -8 -114 5 0 13 32 18 72 9 76 32 110 25 37 -3 -29 -1 -40 7 -35
6 4 9 11 6 16 -3 4 1 32 8 61 8 31 17 47 21 40 4 -7 5 -20 1 -29 -9 -20 -14
-48 -22 -115 -4 -32 -9 -44 -14 -35 -5 7 -6 21 -3 31 3 9 1 17 -5 17 -6 0 -11
-18 -11 -40 0 -32 3 -38 16 -33 12 5 15 1 11 -13 -9 -30 -21 -118 -19 -131 2
-7 -2 -13 -8 -13 -5 0 -10 11 -10 25 0 52 -18 22 -25 -40 -3 -36 -11 -65 -16
-65 -4 0 -7 12 -4 28 8 51 17 127 21 172 5 58 -13 22 -20 -40 -2 -23 -7 -44
-10 -47 -11 -12 -18 29 -11 65 3 20 9 55 11 77 3 22 7 46 9 53 2 6 1 12 -4 12
-8 0 -34 -143 -51 -290 -5 -47 -14 -101 -19 -120 -9 -35 -9 -35 -10 -5 0 17 9
100 20 185 11 85 21 173 23 196 2 23 6 46 10 52 3 6 5 23 4 39 -1 15 3 37 9
48 12 24 16 105 5 105 -4 0 -13 -5 -20 -12 -9 -9 -12 -7 -12 13 -1 38 -16 3
-24 -54 -3 -31 -2 -46 4 -42 6 3 10 12 10 20 0 8 5 17 11 21 8 5 9 -11 4 -57
-11 -93 -11 -93 -22 -96 -6 -2 -8 15 -5 48 3 37 2 50 -7 45 -6 -4 -11 -19 -11
-34 0 -38 -11 -73 -20 -67 -4 3 -4 22 1 42 11 49 11 63 0 63 -5 0 -11 -17 -14
-37 -3 -21 -7 -51 -10 -68 -3 -16 -8 -50 -12 -75 -11 -82 -27 -82 -19 0 4 41
8 87 9 103 1 15 5 30 8 34 10 9 9 53 -1 53 -8 0 -32 -122 -32 -165 0 -14 -5
-25 -11 -25 -8 0 -10 19 -5 63 7 70 -9 62 -20 -11 -3 -23 -10 -44 -14 -47 -5
-3 -6 3 -4 12 2 10 6 41 8 68 2 28 5 52 6 55 1 3 2 8 1 13 -2 12 17 8 22 -5 7
-22 15 -5 20 44 6 56 14 71 32 64 14 -5 18 3 31 64 6 31 5 33 -10 21 -9 -7
-16 -22 -16 -32 0 -11 -5 -19 -10 -19 -12 0 -6 50 12 107 5 18 8 45 7 60 -2
16 -1 33 3 38 3 6 11 60 17 120 13 126 31 238 38 232 2 -3 -1 -51 -7 -108z
m47 79 c-3 -8 -6 -5 -6 6 -1 11 2 17 5 13 3 -3 4 -12 1 -19z m-81 -5 c-3 -10
-6 -55 -8 -100 -1 -46 -6 -83 -11 -83 -9 0 0 176 10 193 8 14 14 7 9 -10z
m1948 2 c-4 -8 -10 -12 -15 -9 -11 6 -2 24 11 24 5 0 7 -7 4 -15z m73 9 c-3
-3 -12 -4 -19 -1 -8 3 -5 6 6 6 11 1 17 -2 13 -5z m-1906 -37 c-8 -8 -11 -7
-11 4 0 20 13 34 18 19 3 -7 -1 -17 -7 -23z m116 1 c-3 -8 -6 -5 -6 6 -1 11 2
17 5 13 3 -3 4 -12 1 -19z m-500 -65 c-2 -16 -4 -3 -4 27 0 30 2 43 4 28 2
-16 2 -40 0 -55z m420 28 c-3 -57 -17 -82 -17 -30 0 33 9 79 16 79 1 0 2 -22
1 -49z m-82 -67 c-9 -86 -29 -98 -22 -13 5 68 18 112 25 90 2 -7 1 -41 -3 -77z
m165 60 c0 -8 -4 -14 -10 -14 -5 0 -10 9 -10 21 0 11 5 17 10 14 6 -3 10 -13
10 -21z m2077 20 c-3 -3 -12 -4 -19 -1 -8 3 -5 6 6 6 11 1 17 -2 13 -5z
m-2537 -80 c0 -8 -4 -12 -10 -9 -5 3 -10 10 -10 16 0 5 5 9 10 9 6 0 10 -7 10
-16z m38 -94 c0 -23 -1 -22 -8 5 -4 17 -8 48 -8 70 l1 40 8 -45 c4 -25 7 -56
7 -70z m438 68 c-4 -18 -11 -55 -15 -83 -9 -57 -29 -111 -30 -82 -1 10 3 37 9
60 5 23 12 63 15 90 3 26 11 47 17 47 7 0 8 -12 4 -32z m-519 0 c-3 -8 -6 -5
-6 6 -1 11 2 17 5 13 3 -3 4 -12 1 -19z m703 -105 c-15 -55 -30 -78 -30 -46 0
12 5 25 11 29 6 3 9 15 6 25 -3 11 -1 19 4 19 5 0 9 8 9 17 0 9 3 13 6 10 4
-4 1 -28 -6 -54z m-650 21 c0 -8 -5 -12 -10 -9 -6 4 -8 11 -5 16 9 14 15 11
15 -7z m39 -57 c0 -27 -2 -29 -9 -12 -12 28 -12 57 0 50 6 -3 10 -21 9 -38z
m31 18 c0 -14 -2 -25 -4 -25 -2 0 -6 11 -8 25 -3 14 -1 25 3 25 5 0 9 -11 9
-25z m635 -70 c-9 -39 -17 -75 -18 -82 -7 -28 -17 -24 -17 7 0 39 42 182 47
160 2 -9 -3 -47 -12 -85z m-34 54 c-9 -22 -10 -22 -10 -3 -1 11 2 24 6 27 12
12 14 0 4 -24z m-201 -31 c0 -16 -3 -19 -11 -11 -6 6 -8 16 -5 22 11 17 16 13
16 -11z m340 -45 c-4 -32 -5 -63 -3 -69 2 -6 -3 -17 -12 -24 -25 -20 -21 25
11 138 8 28 10 8 4 -45z m70 17 l-8 -35 -1 31 c-1 17 2 34 6 37 11 12 12 3 3
-33z m-210 11 c0 -10 -7 -24 -15 -31 -16 -13 -18 -8 -9 28 8 27 24 29 24 3z
m-53 -43 c-2 -13 -4 -5 -4 17 -1 22 1 32 4 23 2 -10 2 -28 0 -40z m-191 -14
c-7 -26 -26 -33 -26 -10 0 8 5 27 12 43 9 23 12 25 15 10 3 -10 2 -29 -1 -43z
m2089 46 c4 -6 -9 -10 -30 -10 -20 0 -34 3 -31 8 7 11 54 13 61 2z m-1604 -42
c-4 -35 -6 -38 -9 -15 -3 26 3 57 10 57 2 0 1 -19 -1 -42z m-74 -15 c-3 -10
-5 -2 -5 17 0 19 2 27 5 18 2 -10 2 -26 0 -35z m-780 15 c-3 -8 -6 -5 -6 6 -1
11 2 17 5 13 3 -3 4 -12 1 -19z m930 -3 c-4 -8 -11 -15 -17 -15 -7 0 -7 6 0
21 13 23 26 19 17 -6z m105 -7 c-7 -7 -12 -8 -12 -2 0 14 12 26 19 19 2 -3 -1
-11 -7 -17z m-142 5 c0 -5 -5 -15 -10 -23 -7 -12 -9 -10 -7 8 1 19 17 33 17
15z m-783 -25 c-3 -8 -6 -5 -6 6 -1 11 2 17 5 13 3 -3 4 -12 1 -19z m699 -66
c-13 -12 -16 8 -9 49 l8 44 3 -44 c2 -23 1 -46 -2 -49z m194 84 c0 -3 -4 -8
-10 -11 -5 -3 -10 -1 -10 4 0 6 5 11 10 11 6 0 10 -2 10 -4z m-123 -68 c-3 -7
-5 -2 -5 12 0 14 2 19 5 13 2 -7 2 -19 0 -25z m-767 12 c0 -5 -4 -10 -10 -10
-5 0 -10 5 -10 10 0 6 5 10 10 10 6 0 10 -4 10 -10z m740 -4 c0 -8 -4 -18 -10
-21 -5 -3 -10 3 -10 14 0 12 5 21 10 21 6 0 10 -6 10 -14z m-460 -38 c0 -13
-5 -30 -10 -38 -7 -11 -10 -5 -10 23 0 20 5 37 10 37 6 0 10 -10 10 -22z m211
-55 c-9 -15 -10 -13 -11 14 0 17 3 40 8 50 5 14 8 11 10 -14 2 -18 -1 -41 -7
-50z m-155 9 c-12 -11 -17 7 -9 34 l8 29 3 -28 c2 -16 1 -31 -2 -35z m120 -20
c-12 -11 -15 5 -8 44 l7 39 3 -39 c2 -21 1 -41 -2 -44z m-482 3 c-15 -39 -15
-39 -9 -6 3 18 5 41 5 49 0 10 3 13 10 6 6 -6 4 -24 -6 -49z m751 23 c0 -18
-6 -42 -13 -53 -10 -17 -11 -15 -8 21 3 36 11 64 20 64 2 0 2 -15 1 -32z
m-423 -10 c-9 -9 -12 -7 -12 12 0 19 3 21 12 12 9 -9 9 -15 0 -24z m648 1 c0
-16 -4 -28 -9 -25 -8 5 -3 56 5 56 2 0 4 -14 4 -31z m-623 -41 c-3 -7 -5 -2
-5 12 0 14 2 19 5 13 2 -7 2 -19 0 -25z m30 10 c-3 -8 -6 -5 -6 6 -1 11 2 17
5 13 3 -3 4 -12 1 -19z m-60 -20 c-3 -8 -6 -5 -6 6 -1 11 2 17 5 13 3 -3 4
-12 1 -19z m151 -60 c-5 -35 -13 -81 -18 -103 -8 -33 -9 -26 -5 35 5 89 15
141 25 135 3 -2 3 -32 -2 -67z m-153 10 c-3 -17 -10 -38 -15 -47 -7 -12 -9 -9
-10 16 0 37 9 63 21 63 5 0 7 -14 4 -32z m682 0 c-3 -8 -6 -5 -6 6 -1 11 2 17
5 13 3 -3 4 -12 1 -19z m-570 -10 c-3 -8 -6 -5 -6 6 -1 11 2 17 5 13 3 -3 4
-12 1 -19z m1551 -5 c-16 -2 -40 -2 -55 0 -16 2 -3 4 27 4 30 0 43 -2 28 -4z
m-978 -30 c0 -20 -3 -24 -11 -16 -7 7 -9 19 -6 27 10 24 17 19 17 -11z m-660
13 c0 -3 -4 -8 -10 -11 -5 -3 -10 -1 -10 4 0 6 5 11 10 11 6 0 10 -2 10 -4z
m57 -26 c-5 -22 -2 -32 11 -39 22 -12 12 -22 -14 -15 -20 5 -23 26 -9 72 8 25
17 11 12 -18z m33 23 c0 -5 -5 -15 -10 -23 -8 -12 -10 -11 -10 8 0 12 5 22 10
22 6 0 10 -3 10 -7z m610 0 c0 -5 -5 -15 -10 -23 -8 -12 -10 -11 -10 8 0 12 5
22 10 22 6 0 10 -3 10 -7z m227 -25 c-3 -8 -6 -5 -6 6 -1 11 2 17 5 13 3 -3 4
-12 1 -19z m148 12 c3 -5 -1 -10 -9 -10 -9 0 -16 5 -16 10 0 6 4 10 9 10 6 0
13 -4 16 -10z m422 -6 c-3 -3 -12 -4 -19 -1 -8 3 -5 6 6 6 11 1 17 -2 13 -5z
m68 -4 c-3 -5 -12 -10 -20 -10 -8 0 -17 5 -20 10 -4 6 5 10 20 10 15 0 24 -4
20 -10z m-718 -42 c-3 -7 -5 -2 -5 12 0 14 2 19 5 13 2 -7 2 -19 0 -25z m420
26 c-3 -3 -12 -4 -19 -1 -8 3 -5 6 6 6 11 1 17 -2 13 -5z m-504 -75 c-11 -11
-16 48 -6 64 5 7 9 -1 11 -22 2 -18 0 -37 -5 -42z m-1028 19 c-3 -18 -9 -52
-12 -75 -3 -24 -10 -40 -15 -37 -5 3 -7 18 -4 32 3 15 8 46 11 70 4 23 11 42
16 42 6 0 8 -14 4 -32z m221 5 c-2 -16 -5 -35 -5 -42 -1 -9 -4 -11 -10 -5 -11
11 -2 74 10 74 6 0 8 -12 5 -27z m34 11 c0 -8 -5 -12 -10 -9 -6 4 -8 11 -5 16
9 14 15 11 15 -7z m194 -47 c-3 -29 -7 -68 -10 -87 -10 -83 -24 -214 -35 -329
-7 -69 -15 -117 -19 -107 -6 18 -5 58 1 85 2 7 -2 16 -8 18 -9 3 -13 -10 -13
-46 0 -27 -5 -53 -11 -56 -7 -5 -9 13 -5 57 3 34 5 68 6 73 0 6 4 3 10 -5 15
-24 30 32 35 129 3 47 7 97 10 111 4 25 21 165 24 213 1 5 5 6 10 2 6 -3 8
-29 5 -58z m546 47 c0 -8 -4 -12 -10 -9 -5 3 -10 10 -10 16 0 5 5 9 10 9 6 0
10 -7 10 -16z m347 10 c-3 -3 -12 -4 -19 -1 -8 3 -5 6 6 6 11 1 17 -2 13 -5z
m-1304 -17 c3 -8 1 -31 -4 -53 -5 -21 -12 -52 -15 -69 l-7 -30 -7 25 c-3 14
-3 27 2 28 4 2 8 28 8 58 0 51 11 71 23 41z m1502 2 c13 -5 -8 -7 -60 -3 -44
4 -82 8 -84 10 -9 8 125 2 144 -7z m-472 -47 c-3 -24 -10 -39 -14 -35 -5 5 -3
25 3 46 14 47 18 43 11 -11z m127 44 c0 -3 -4 -8 -10 -11 -5 -3 -10 -1 -10 4
0 6 5 11 10 11 6 0 10 -2 10 -4z m-893 -43 c-3 -10 -5 -4 -5 12 0 17 2 24 5
18 2 -7 2 -21 0 -30z m-30 -10 c-3 -10 -5 -4 -5 12 0 17 2 24 5 18 2 -7 2 -21
0 -30z m69 -4 c-4 -22 -9 -67 -13 -100 -7 -71 -23 -90 -18 -22 8 104 18 163
28 163 6 0 7 -16 3 -41z m-99 -11 c-3 -8 -6 -5 -6 6 -1 11 2 17 5 13 3 -3 4
-12 1 -19z m129 -30 c-4 -29 -8 -71 -10 -93 -3 -22 -9 -69 -15 -105 -5 -36
-13 -114 -16 -175 -3 -60 -8 -112 -11 -114 -17 -17 20 456 42 527 9 30 15 7
10 -40z m-469 0 c-3 -7 -5 -2 -5 12 0 14 2 19 5 13 2 -7 2 -19 0 -25z m313 23
c0 -6 -4 -13 -10 -16 -5 -3 -10 1 -10 9 0 9 5 16 10 16 6 0 10 -4 10 -9z m16
-60 c-3 -23 -2 -42 4 -46 5 -3 10 2 10 11 0 13 3 15 10 8 7 -7 8 -19 1 -37 -6
-14 -6 -29 -2 -32 5 -2 12 11 15 30 4 19 11 35 16 35 10 0 8 -48 -2 -65 -3 -6
-9 -58 -13 -118 -4 -59 -12 -107 -17 -107 -5 0 -7 12 -4 28 12 60 16 172 6
172 -5 0 -10 -5 -10 -11 0 -5 -5 -7 -11 -3 -6 3 -8 17 -4 31 5 21 3 24 -11 19
-15 -6 -16 -1 -10 40 3 26 6 55 6 65 0 11 5 19 11 19 8 0 9 -13 5 -39z m-26
10 c0 -11 -4 -23 -10 -26 -6 -4 -10 5 -10 19 0 14 5 26 10 26 6 0 10 -9 10
-19z m90 -1 c0 -11 -4 -20 -9 -20 -5 0 -7 9 -4 20 3 11 7 20 9 20 2 0 4 -9 4
-20z m-363 -22 c-3 -8 -6 -5 -6 6 -1 11 2 17 5 13 3 -3 4 -12 1 -19z m454
-127 c-9 -78 -19 -141 -22 -141 -11 0 2 210 17 273 1 4 2 10 3 13 0 3 5 3 9 0
4 -2 1 -68 -7 -145z m-411 97 c0 -23 -3 -29 -11 -21 -6 6 -8 20 -4 32 9 30 15
26 15 -11z m28 -53 c-1 -41 -6 -81 -11 -88 -5 -7 -6 10 -3 43 3 30 6 70 6 88
0 17 2 32 5 32 3 0 5 -34 3 -75z m86 0 c-9 -38 -26 -16 -18 24 6 26 9 30 16
18 5 -9 6 -28 2 -42z m102 26 c-12 -19 -24 -12 -19 10 4 13 9 17 15 11 6 -6 7
-15 4 -21z m-51 -76 c-3 -35 -11 -77 -16 -92 -8 -24 -8 -22 -4 12 3 22 8 64
11 93 4 28 9 52 12 52 2 0 1 -29 -3 -65z m32 33 c-3 -8 -6 -5 -6 6 -1 11 2 17
5 13 3 -3 4 -12 1 -19z m137 -40 c-9 -73 -26 -98 -18 -28 6 62 11 80 19 80 3
0 3 -24 -1 -52z m-344 27 c0 -8 -4 -15 -10 -15 -5 0 -7 7 -4 15 4 8 8 15 10
15 2 0 4 -7 4 -15z m243 -34 c-5 -34 -3 -39 13 -38 15 2 18 -4 16 -23 -6 -38
-22 -49 -23 -14 l-1 29 -8 -30 c-4 -16 -8 -52 -9 -80 -1 -29 -5 -45 -9 -37 -8
11 -7 47 2 182 5 67 4 62 15 56 5 -3 7 -24 4 -45z m-33 9 c0 -11 -4 -20 -10
-20 -5 0 -10 9 -10 20 0 11 5 20 10 20 6 0 10 -9 10 -20z m-104 -31 c-3 -17
-6 -50 -6 -73 0 -25 -3 -36 -9 -28 -4 7 -7 30 -5 50 2 20 3 47 3 60 1 12 6 22
12 22 8 0 9 -11 5 -31z m30 -26 c-11 -11 -17 4 -9 23 7 18 8 18 11 1 2 -10 1
-21 -2 -24z m70 1 c-3 -9 -6 -25 -7 -37 -1 -20 -2 -20 -8 3 -9 28 -4 50 11 50
6 0 7 -7 4 -16z m121 -66 c-3 -7 -5 -2 -5 12 0 14 2 19 5 13 2 -7 2 -19 0 -25z
m-127 -18 c0 -5 -5 -10 -11 -10 -5 0 -7 5 -4 10 3 6 8 10 11 10 2 0 4 -4 4
-10z m130 -20 c0 -5 -4 -10 -10 -10 -5 0 -10 5 -10 10 0 6 5 10 10 10 6 0 10
-4 10 -10z m-70 -67 c0 -38 -3 -54 -10 -47 -9 9 -3 104 6 104 2 0 4 -26 4 -57z
m-103 5 c-3 -8 -6 -5 -6 6 -1 11 2 17 5 13 3 -3 4 -12 1 -19z"/>
<path d="M2413 3349 c-30 -11 -29 -14 4 -17 33 -3 83 -24 83 -36 0 -4 -7 -5
-16 -2 -19 7 -164 -18 -219 -38 -22 -8 -58 -18 -79 -23 -44 -9 -70 -38 -47
-52 8 -6 24 -5 38 0 14 5 32 9 41 9 26 0 -6 -26 -48 -39 l-35 -10 43 5 c27 4
42 2 42 -5 0 -17 49 -13 67 5 10 10 25 13 41 9 62 -15 78 -16 97 -1 l20 16
-20 -6 c-15 -4 -13 0 9 19 17 15 26 30 21 37 -5 9 -1 10 15 5 33 -11 70 -46
70 -68 0 -14 5 -17 17 -13 9 4 20 1 24 -6 4 -7 11 -9 15 -5 4 3 1 13 -6 21
-10 13 -6 13 35 0 26 -9 49 -23 52 -30 3 -8 11 -14 19 -14 12 0 19 -19 15 -43
-1 -4 8 -17 19 -29 l20 -22 1 30 c3 107 -17 189 -44 178 -8 -2 -26 7 -41 21
-28 26 -50 26 -39 0 3 -8 0 -15 -6 -15 -6 0 -11 8 -11 18 0 10 -15 24 -38 34
l-37 18 48 -4 c26 -2 47 -1 47 3 0 10 -20 37 -20 27 0 -5 -6 -3 -14 3 -8 7
-25 14 -38 16 -63 10 -125 12 -145 4z m35 -85 c37 -10 25 -25 -16 -18 -21 3
-56 1 -77 -5 -50 -13 -58 -6 -14 13 37 16 71 19 107 10z m98 -56 l29 -31 -30
20 c-16 11 -39 25 -50 31 -20 11 -20 11 1 12 11 0 33 -14 50 -32z"/>
<path d="M3088 3329 c-19 -5 -20 -7 -6 -13 23 -10 71 -3 75 10 4 13 -28 14
-69 3z"/>
<path d="M3058 3286 c-21 -8 -50 -22 -65 -32 -16 -10 -31 -17 -35 -16 -5 1 -8
-5 -8 -13 0 -8 -4 -15 -10 -15 -5 0 -10 -7 -10 -15 0 -12 7 -14 28 -9 22 5 25
4 15 -7 -18 -18 -16 -29 5 -29 12 0 18 7 18 20 -1 26 17 27 30 1 16 -32 27
-39 19 -13 -7 23 -6 23 17 8 23 -15 26 -14 46 4 12 11 26 20 32 20 5 0 10 9
10 21 0 16 4 19 23 14 12 -4 32 -18 43 -32 13 -15 24 -21 28 -15 8 13 -39 51
-73 58 -14 3 -35 9 -46 14 -16 7 -11 9 22 9 49 1 91 -13 109 -37 12 -16 13
-16 14 0 0 20 -46 58 -71 58 -11 0 -19 5 -19 10 0 14 -78 12 -122 -4z m57 -66
c-3 -5 -10 -10 -16 -10 -5 0 -9 5 -9 10 0 6 7 10 16 10 8 0 12 -4 9 -10z"/>
<path d="M2200 3111 c0 -13 91 -68 126 -75 16 -3 35 -2 42 3 9 5 1 10 -28 15
-23 3 -38 11 -35 16 3 6 -2 10 -13 10 -11 0 -31 9 -45 20 -27 21 -47 26 -47
11z"/>
<path d="M2555 2717 c-5 -34 -7 -66 -6 -71 4 -18 -11 -46 -25 -46 -8 0 -14 -7
-14 -15 0 -18 -16 -20 -23 -2 -3 7 -6 5 -6 -6 -1 -15 -5 -16 -21 -7 -16 9 -20
8 -20 -5 0 -19 -18 -20 -22 0 -3 13 -6 13 -30 1 -23 -12 -28 -12 -28 -2 0 9
-10 12 -29 10 -22 -3 -30 1 -34 16 -14 52 -77 -31 -77 -101 0 -28 2 -30 17
-18 12 10 15 10 9 1 -9 -14 12 -36 37 -38 12 -1 17 5 17 22 0 31 15 38 47 20
75 -39 117 -57 128 -52 7 2 21 -1 31 -9 22 -15 176 -25 171 -11 -2 5 -14 11
-27 13 -31 5 -44 18 -37 37 7 18 47 17 47 -1 0 -7 5 -13 10 -13 6 0 10 6 10
14 0 16 63 31 83 20 6 -4 8 -3 4 2 -4 4 14 18 41 30 33 14 55 32 64 50 7 17
31 38 54 49 37 18 75 68 61 81 -7 8 -67 -46 -67 -61 0 -7 -12 -16 -27 -20 -16
-3 -35 -13 -43 -20 -12 -11 -24 -12 -45 -6 -17 5 -25 10 -20 10 6 1 15 9 22
20 9 14 8 24 -3 46 -8 15 -14 35 -14 45 0 10 -7 24 -17 31 -15 13 -16 11 -11
-14 4 -20 2 -25 -5 -18 -6 6 -36 11 -67 11 -51 0 -60 3 -92 34 l-36 35 -7 -62z
m-85 -187 c0 -5 -2 -10 -4 -10 -3 0 -8 5 -11 10 -3 6 -1 10 4 10 6 0 11 -4 11
-10z m68 -29 c-15 -5 -19 4 -11 24 6 18 7 18 13 -1 4 -10 3 -21 -2 -23z m50
-50 c3 -8 -1 -12 -9 -9 -7 2 -15 10 -17 17 -3 8 1 12 9 9 7 -2 15 -10 17 -17z"/>
<path d="M3230 2631 c0 -6 4 -13 10 -16 6 -3 7 1 4 9 -7 18 -14 21 -14 7z"/>
<path d="M3146 2565 c-15 -14 -35 -25 -44 -26 -10 0 -12 -3 -4 -6 14 -5 17
-33 3 -33 -5 0 -12 6 -14 13 -4 9 -8 9 -14 0 -8 -11 -96 -29 -120 -25 -8 2
-10 -3 -7 -13 3 -8 2 -15 -4 -15 -5 0 -12 -9 -15 -20 -3 -11 -16 -24 -29 -29
-12 -6 -17 -10 -10 -10 8 -1 50 15 94 34 76 34 125 41 139 21 4 -5 15 -5 25
-1 11 5 22 7 26 7 4 -1 14 12 23 28 14 27 14 32 -4 65 l-18 35 -27 -25z"/>
<path d="M3304 2555 c-4 -11 -14 -26 -21 -33 -7 -7 -13 -20 -13 -28 0 -24 39
2 46 31 8 33 -1 56 -12 30z"/>
<path d="M3330 2535 c0 -14 5 -25 10 -25 6 0 10 11 10 25 0 14 -4 25 -10 25
-5 0 -10 -11 -10 -25z"/>
<path d="M2927 2519 c7 -7 15 -10 18 -7 3 3 -2 9 -12 12 -14 6 -15 5 -6 -5z"/>
<path d="M2870 2480 c0 -5 7 -10 16 -10 8 0 12 5 9 10 -3 6 -10 10 -16 10 -5
0 -9 -4 -9 -10z"/>
<path d="M2850 2389 c0 -5 5 -7 10 -4 6 3 10 8 10 11 0 2 -4 4 -10 4 -5 0 -10
-5 -10 -11z"/>
<path d="M3056 2208 c-3 -13 -6 -25 -6 -28 -1 -2 3 -6 8 -8 5 -1 12 11 14 28
5 35 -7 41 -16 8z"/>
<path d="M3033 2144 c0 -18 18 -18 43 0 18 14 17 15 -12 14 -19 -1 -31 -6 -31
-14z"/>
<path d="M2805 2131 c-3 -5 -2 -12 3 -15 5 -3 9 1 9 9 0 17 -3 19 -12 6z"/>
<path d="M2771 1984 c0 -11 3 -14 6 -6 3 7 2 16 -1 19 -3 4 -6 -2 -5 -13z"/>
<path d="M800 2410 c0 -5 5 -10 11 -10 5 0 7 5 4 10 -3 6 -8 10 -11 10 -2 0
-4 -4 -4 -10z"/>
<path d="M818 2363 c7 -3 16 -2 19 1 4 3 -2 6 -13 5 -11 0 -14 -3 -6 -6z"/>
<path d="M676 1193 c-16 -106 -17 -128 -5 -116 6 6 12 28 14 49 2 22 7 54 10
72 5 19 3 32 -3 32 -5 0 -12 -17 -16 -37z"/>
<path d="M637 1143 c-4 -3 -7 -11 -7 -17 0 -6 5 -5 12 2 6 6 9 14 7 17 -3 3
-9 2 -12 -2z"/>
<path d="M550 1121 c0 -6 5 -13 10 -16 6 -3 10 1 10 9 0 9 -4 16 -10 16 -5 0
-10 -4 -10 -9z"/>
<path d="M551 1043 c-1 -26 0 -45 3 -43 8 9 15 90 7 90 -4 0 -8 -21 -10 -47z"/>
<path d="M580 1008 c0 -32 3 -39 10 -28 13 20 13 70 0 70 -5 0 -10 -19 -10
-42z"/>
<path d="M616 1018 c-3 -13 -1 -27 4 -32 7 -7 10 1 10 22 0 37 -5 41 -14 10z"/>
<path d="M651 1014 c0 -11 3 -14 6 -6 3 7 2 16 -1 19 -3 4 -6 -2 -5 -13z"/>
<path d="M686 1022 c-4 -7 -3 -19 2 -28 12 -21 22 -5 12 20 -4 13 -9 16 -14 8z"/>
<path d="M639 955 c-9 -16 5 -62 15 -47 15 25 23 11 16 -28 -4 -22 -3 -43 1
-46 5 -3 9 6 9 19 0 14 3 38 6 55 6 27 4 30 -14 25 -14 -3 -21 1 -24 14 -2 10
-6 14 -9 8z"/>
<path d="M572 925 c0 -16 2 -22 5 -12 2 9 2 23 0 30 -3 6 -5 -1 -5 -18z"/>
<path d="M605 920 c3 -5 8 -10 11 -10 2 0 4 5 4 10 0 6 -5 10 -11 10 -5 0 -7
-4 -4 -10z"/>
<path d="M557 877 c-3 -8 -1 -20 4 -28 6 -10 9 -7 9 14 0 29 -5 35 -13 14z"/>
<path d="M510 816 c0 -9 5 -16 10 -16 6 0 10 4 10 9 0 6 -4 13 -10 16 -5 3
-10 -1 -10 -9z"/>
<path d="M666 811 c-11 -17 -18 -86 -8 -76 5 6 12 27 15 48 6 37 3 45 -7 28z"/>
<path d="M640 710 c0 -5 7 -10 15 -10 8 0 15 5 15 10 0 6 -7 10 -15 10 -8 0
-15 -4 -15 -10z"/>
<path d="M702 545 c-14 -31 -15 -55 -3 -55 7 0 22 70 16 78 -1 1 -7 -9 -13
-23z"/>
<path d="M3290 1917 c9 -7 24 -23 33 -37 16 -23 17 -24 14 -3 -4 28 -26 53
-46 53 -14 -1 -14 -2 -1 -13z"/>
<path d="M3245 1869 c-4 -12 -2 -26 4 -32 8 -8 11 -2 11 21 0 37 -6 41 -15 11z"/>
<path d="M3808 1303 c7 -3 16 -2 19 1 4 3 -2 6 -13 5 -11 0 -14 -3 -6 -6z"/>
<path d="M3848 1303 c7 -3 16 -2 19 1 4 3 -2 6 -13 5 -11 0 -14 -3 -6 -6z"/>
<path d="M3990 1285 c30 -8 56 -12 59 -9 8 8 -4 11 -59 17 l-55 5 55 -13z"/>
<path d="M3450 1260 c0 -6 7 -10 15 -10 8 0 15 2 15 4 0 2 -7 6 -15 10 -8 3
-15 1 -15 -4z"/>
<path d="M3950 1239 c0 -5 11 -9 25 -9 14 0 25 2 25 4 0 2 -11 6 -25 8 -14 3
-25 1 -25 -3z"/>
<path d="M0 1204 c0 -28 34 -63 48 -50 3 3 0 6 -6 6 -7 0 -12 8 -12 18 0 9 -7
26 -15 36 -14 19 -15 18 -15 -10z"/>
<path d="M4073 1223 c9 -2 25 -2 35 0 9 3 1 5 -18 5 -19 0 -27 -2 -17 -5z"/>
<path d="M3845 1206 c22 -8 54 -15 70 -15 17 -1 46 -5 65 -11 20 -5 50 -5 70
-1 l35 9 -45 1 c-40 1 -80 6 -200 25 l-35 6 40 -14z"/>
<path d="M3685 1180 c-3 -5 1 -10 10 -10 9 0 13 5 10 10 -3 6 -8 10 -10 10 -2
0 -7 -4 -10 -10z"/>
<path d="M3738 1173 c7 -3 16 -2 19 1 4 3 -2 6 -13 5 -11 0 -14 -3 -6 -6z"/>
<path d="M3781 1170 c22 -13 96 -30 149 -35 25 -2 65 -7 90 -10 25 -2 81 -7
125 -11 81 -5 95 -7 150 -18 27 -6 27 -5 -5 7 -38 15 -167 32 -320 43 -52 3
-113 12 -135 20 -48 16 -79 19 -54 4z"/>
<path d="M4185 1164 c50 -8 99 -13 110 -11 30 4 -105 27 -156 26 -34 -1 -23
-4 46 -15z"/>
<path d="M3653 1144 c11 -12 137 -33 137 -23 0 4 -24 10 -52 14 -29 3 -62 9
-73 12 -11 3 -16 2 -12 -3z"/>
<path d="M3390 1132 c-14 -1 -61 -9 -105 -17 -44 -8 -107 -19 -140 -25 l-60
-9 70 4 c39 2 84 7 100 10 102 18 186 26 224 21 25 -3 41 -3 38 1 -9 8 -94 19
-127 15z"/>
<path d="M0 1114 c0 -8 5 -12 10 -9 6 4 8 11 5 16 -9 14 -15 11 -15 -7z"/>
<path d="M3815 1110 c10 -16 76 -28 190 -35 61 -3 139 -10 175 -15 36 -6 83
-12 105 -15 37 -5 38 -4 10 5 -51 17 -205 39 -316 45 -59 3 -121 10 -138 15
-19 5 -29 5 -26 0z"/>
<path d="M3668 1093 c6 -2 18 -2 25 0 6 3 1 5 -13 5 -14 0 -19 -2 -12 -5z"/>
<path d="M3438 1083 c7 -3 16 -2 19 1 4 3 -2 6 -13 5 -11 0 -14 -3 -6 -6z"/>
<path d="M3739 1075 c58 -26 153 -47 231 -51 41 -2 123 -10 183 -17 117 -15
145 -8 45 11 -60 11 -103 15 -267 27 -41 3 -78 8 -83 11 -11 7 -118 33 -133
33 -5 0 5 -6 24 -14z"/>
<path d="M3230 1064 c-25 -7 -64 -13 -87 -13 -24 -1 -43 -5 -43 -11 0 -5 12
-8 28 -5 131 21 222 38 222 41 0 8 -77 1 -120 -12z"/>
<path d="M3676 1051 c27 -27 231 -80 309 -81 28 0 124 -14 215 -30 154 -27
208 -33 143 -15 -33 10 -34 10 -53 18 -32 13 -319 55 -381 56 -39 1 -90 10
-125 22 -91 32 -119 40 -108 30z"/>
<path d="M3350 1038 c-47 -4 -107 -12 -135 -17 -49 -10 -49 -10 15 -5 36 3
112 9 170 13 63 4 91 8 70 11 -19 3 -73 2 -120 -2z"/>
<path d="M3315 993 c-11 -1 -47 -5 -79 -8 -37 -4 -54 -10 -46 -15 7 -4 19 -6
25 -4 18 7 81 12 174 13 46 1 81 4 78 7 -6 7 -114 12 -152 7z"/>
<path d="M4280 990 c0 -5 7 -10 16 -10 8 0 12 5 9 10 -3 6 -10 10 -16 10 -5 0
-9 -4 -9 -10z"/>
<path d="M3493 983 c9 -2 25 -2 35 0 9 3 1 5 -18 5 -19 0 -27 -2 -17 -5z"/>
<path d="M3720 986 c0 -2 7 -6 15 -10 8 -3 15 -1 15 4 0 6 -7 10 -15 10 -8 0
-15 -2 -15 -4z"/>
<path d="M4320 980 c0 -5 7 -10 16 -10 8 0 12 5 9 10 -3 6 -10 10 -16 10 -5 0
-9 -4 -9 -10z"/>
<path d="M3125 970 c-3 -5 -1 -10 4 -10 6 0 11 5 11 10 0 6 -2 10 -4 10 -3 0
-8 -4 -11 -10z"/>
<path d="M2965 960 c4 -6 11 -8 16 -5 14 9 11 15 -7 15 -8 0 -12 -5 -9 -10z"/>
<path d="M3008 963 c6 -2 18 -2 25 0 6 3 1 5 -13 5 -14 0 -19 -2 -12 -5z"/>
<path d="M3063 963 c9 -2 23 -2 30 0 6 3 -1 5 -18 5 -16 0 -22 -2 -12 -5z"/>
<path d="M2908 953 c7 -3 16 -2 19 1 4 3 -2 6 -13 5 -11 0 -14 -3 -6 -6z"/>
<path d="M3836 940 c6 -6 53 -13 105 -16 52 -2 101 -7 109 -9 8 -3 76 -16 150
-30 74 -14 144 -28 155 -31 l20 -6 -20 15 c-18 12 -61 28 -90 31 -5 1 -35 7
-65 13 -30 7 -79 14 -109 18 -29 3 -57 8 -62 11 -5 2 -52 7 -106 10 -73 4 -95
3 -87 -6z"/>
<path d="M3782 911 c19 -13 141 -39 213 -45 28 -3 70 -10 95 -16 25 -6 65 -15
90 -21 25 -6 72 -15 105 -19 33 -5 71 -12 85 -16 16 -4 21 -3 15 3 -18 17
-198 63 -310 79 -27 3 -61 8 -75 10 -14 3 -64 9 -111 14 -47 5 -95 12 -105 16
-17 5 -17 4 -2 -5z"/>
<path d="M3741 887 c2 -1 13 -9 24 -17 19 -14 19 -14 6 3 -7 9 -18 17 -24 17
-6 0 -8 -1 -6 -3z"/>
<path d="M1041 864 c0 -11 3 -14 6 -6 3 7 2 16 -1 19 -3 4 -6 -2 -5 -13z"/>
<path d="M3610 870 c8 -5 20 -10 25 -10 6 0 3 5 -5 10 -8 5 -19 10 -25 10 -5
0 -3 -5 5 -10z"/>
<path d="M3833 843 c9 -2 23 -2 30 0 6 3 -1 5 -18 5 -16 0 -22 -2 -12 -5z"/>
<path d="M3906 830 c11 -4 47 -11 80 -15 32 -4 73 -11 89 -16 37 -10 191 -47
225 -53 14 -2 39 -7 55 -11 27 -7 28 -6 15 7 -27 27 -372 100 -460 97 -24 0
-24 -1 -4 -9z"/>
<path d="M1074 806 c-3 -8 -4 -23 -2 -33 3 -11 6 -6 9 15 6 34 2 42 -7 18z"/>
<path d="M3820 799 c24 -10 134 -36 250 -60 30 -6 82 -18 115 -26 33 -8 69
-16 80 -18 11 -2 38 -7 59 -11 27 -5 37 -4 32 4 -8 13 -80 37 -156 51 -108 22
-216 41 -249 46 -19 3 -52 10 -75 15 -23 5 -50 9 -61 9 -17 0 -16 -2 5 -10z"/>
<path d="M1150 800 c-7 -18 -5 -49 3 -41 5 5 7 17 4 27 -3 11 -6 17 -7 14z"/>
<path d="M1260 773 c0 -10 -3 -28 -6 -40 -4 -13 -2 -23 4 -23 12 0 21 69 10
76 -4 3 -8 -3 -8 -13z"/>
<path d="M3658 773 c7 -3 16 -2 19 1 4 3 -2 6 -13 5 -11 0 -14 -3 -6 -6z"/>
<path d="M3800 760 c8 -5 20 -10 25 -10 6 0 3 5 -5 10 -8 5 -19 10 -25 10 -5
0 -3 -5 5 -10z"/>
<path d="M3840 751 c0 -8 163 -56 260 -76 36 -8 83 -19 105 -25 22 -6 72 -17
110 -24 39 -6 76 -15 83 -19 6 -5 12 -5 12 0 0 19 -159 67 -330 99 -75 14
-133 26 -202 43 -21 5 -38 6 -38 2z"/>
<path d="M1065 740 c-3 -5 -1 -10 4 -10 6 0 11 5 11 10 0 6 -2 10 -4 10 -3 0
-8 -4 -11 -10z"/>
<path d="M1101 703 c-1 -6 -4 -20 -7 -30 -5 -17 -5 -17 6 0 6 10 9 23 6 30 -3
9 -5 9 -5 0z"/>
<path d="M1056 683 c-6 -14 -5 -15 5 -6 7 7 10 15 7 18 -3 3 -9 -2 -12 -12z"/>
<path d="M1170 678 c0 -12 3 -18 7 -14 11 10 12 36 2 36 -5 0 -9 -10 -9 -22z"/>
<path d="M1210 680 c0 -11 4 -20 8 -20 4 0 8 9 9 20 1 11 -2 20 -8 20 -5 0 -9
-9 -9 -20z"/>
<path d="M1251 684 c0 -11 3 -14 6 -6 3 7 2 16 -1 19 -3 4 -6 -2 -5 -13z"/>
<path d="M3960 664 c41 -14 120 -37 174 -50 55 -14 106 -29 115 -33 9 -5 42
-11 74 -15 32 -3 64 -9 70 -13 7 -4 6 0 -2 10 -7 9 -21 17 -30 17 -9 0 -22 5
-29 12 -7 7 -12 8 -12 4 0 -5 -6 -4 -12 1 -12 10 -79 27 -143 38 -65 10 -141
26 -170 34 -16 5 -48 12 -70 15 -29 4 -20 -2 35 -20z"/>
<path d="M4370 676 c0 -2 7 -6 15 -10 8 -3 15 -1 15 4 0 6 -7 10 -15 10 -8 0
-15 -2 -15 -4z"/>
<path d="M1202 620 c0 -19 2 -27 5 -17 2 9 2 25 0 35 -3 9 -5 1 -5 -18z"/>
<path d="M1245 640 c-3 -5 -1 -10 4 -10 6 0 11 5 11 10 0 6 -2 10 -4 10 -3 0
-8 -4 -11 -10z"/>
<path d="M1280 620 c0 -16 2 -30 4 -30 2 0 6 14 8 30 3 17 1 30 -4 30 -4 0 -8
-13 -8 -30z"/>
<path d="M1319 633 c-1 -35 -6 -78 -13 -110 -5 -22 -4 -33 3 -33 6 0 11 3 12
8 2 22 9 82 14 115 3 22 1 37 -5 37 -5 0 -10 -8 -11 -17z"/>
<path d="M3470 647 c-9 -10 -200 -19 -433 -22 -126 -2 -232 -7 -235 -11 -4 -3
193 -3 438 1 540 9 520 8 520 18 0 4 -17 7 -37 7 -21 0 -85 3 -143 6 -58 4
-107 4 -110 1z"/>
<path d="M3942 625 c26 -12 96 -37 155 -55 60 -17 114 -33 121 -35 13 -5 17
-25 5 -25 -26 0 -251 63 -270 75 -12 8 -26 15 -30 15 -4 0 8 -11 27 -24 28
-19 120 -53 298 -112 7 -2 11 -8 7 -14 -4 -6 -12 -6 -23 0 -9 5 -66 21 -127
36 -60 14 -116 31 -123 36 -7 6 -15 9 -17 6 -13 -13 24 -30 185 -84 41 -13 83
-29 93 -35 20 -11 104 -15 114 -6 3 4 -15 12 -41 19 -44 11 -55 21 -38 31 4 3
28 2 55 -3 26 -4 47 -4 47 0 0 7 -56 30 -107 45 -13 3 -23 11 -23 16 0 6 8 8
18 5 9 -2 42 -7 72 -11 51 -5 54 -5 35 10 -21 17 -140 55 -172 55 -22 0 -140
30 -232 60 -81 26 -88 25 -29 -5z"/>
<path d="M1085 630 c3 -5 8 -10 11 -10 2 0 4 5 4 10 0 6 -5 10 -11 10 -5 0 -7
-4 -4 -10z"/>
<path d="M1116 564 c-4 -37 -5 -69 -2 -71 2 -3 7 25 11 62 4 36 5 68 3 71 -3
2 -8 -25 -12 -62z"/>
<path d="M1040 594 c0 -14 4 -23 9 -20 5 3 7 15 4 26 -7 28 -13 25 -13 -6z"/>
<path d="M1160 599 c0 -11 4 -18 10 -14 5 3 7 12 3 20 -7 21 -13 19 -13 -6z"/>
<path d="M1240 604 c0 -8 5 -12 10 -9 6 3 10 10 10 16 0 5 -4 9 -10 9 -5 0
-10 -7 -10 -16z"/>
<path d="M1080 580 c0 -16 2 -30 4 -30 2 0 6 14 8 30 3 17 1 30 -4 30 -4 0 -8
-13 -8 -30z"/>
<path d="M3467 594 c-6 -5 -184 -16 -248 -16 -41 1 -98 -3 -125 -8 -31 -6 99
-8 358 -7 390 2 468 8 308 23 -64 6 -288 12 -293 8z"/>
<path d="M1230 525 c0 -32 2 -56 4 -54 8 7 10 98 3 105 -4 4 -7 -19 -7 -51z"/>
<path d="M1270 564 c0 -8 5 -12 10 -9 6 3 10 10 10 16 0 5 -4 9 -10 9 -5 0
-10 -7 -10 -16z"/>
<path d="M1390 550 c0 -16 5 -30 10 -30 6 0 10 14 10 30 0 17 -4 30 -10 30 -5
0 -10 -13 -10 -30z"/>
<path d="M2743 573 c9 -2 25 -2 35 0 9 3 1 5 -18 5 -19 0 -27 -2 -17 -5z"/>
<path d="M2808 573 c7 -3 16 -2 19 1 4 3 -2 6 -13 5 -11 0 -14 -3 -6 -6z"/>
<path d="M2870 568 c0 -5 18 -8 40 -8 22 0 40 2 40 4 0 2 -18 6 -40 8 -22 2
-40 0 -40 -4z"/>
<path d="M1190 559 c0 -5 5 -7 10 -4 6 3 10 8 10 11 0 2 -4 4 -10 4 -5 0 -10
-5 -10 -11z"/>
<path d="M2978 563 c12 -2 32 -2 45 0 12 2 2 4 -23 4 -25 0 -35 -2 -22 -4z"/>
<path d="M1040 540 c0 -5 5 -10 10 -10 6 0 10 5 10 10 0 6 -4 10 -10 10 -5 0
-10 -4 -10 -10z"/>
<path d="M1431 534 c0 -11 3 -14 6 -6 3 7 2 16 -1 19 -3 4 -6 -2 -5 -13z"/>
<path d="M1775 540 c-3 -5 -5 -10 -3 -11 2 0 23 -2 48 -5 25 -2 97 -11 160
-19 63 -8 166 -14 230 -14 l115 2 -100 13 c-55 7 -125 15 -155 18 -89 7 -192
16 -242 22 -26 2 -49 0 -53 -6z"/>
<path d="M3430 539 c-75 -5 -300 -12 -417 -13 -24 0 -43 -5 -43 -9 0 -6 186
-7 451 -4 248 3 464 1 480 -3 17 -5 27 -5 24 0 -16 26 -299 43 -495 29z"/>
<path d="M2573 533 c9 -2 23 -2 30 0 6 3 -1 5 -18 5 -16 0 -22 -2 -12 -5z"/>
<path d="M2623 533 c4 -3 44 -7 89 -8 52 -1 72 1 53 5 -39 10 -150 12 -142 3z"/>
<path d="M1192 505 c0 -16 2 -22 5 -12 2 9 2 23 0 30 -3 6 -5 -1 -5 -18z"/>
<path d="M1349 528 c-10 -33 1 -52 16 -28 3 6 1 10 -5 10 -6 0 -8 5 -5 10 3 6
4 10 1 10 -3 0 -6 -1 -7 -2z"/>
<path d="M2811 526 c10 -9 150 -15 144 -6 -3 6 -38 10 -77 10 -39 0 -69 -2
-67 -4z"/>
<path d="M1270 493 c0 -18 2 -33 4 -33 9 0 13 39 5 51 -6 10 -9 4 -9 -18z"/>
<path d="M1071 480 c0 -29 1 -32 10 -17 7 11 7 23 0 35 -9 14 -10 11 -10 -18z"/>
<path d="M1033 474 c0 -17 2 -22 7 -13 5 6 6 18 3 26 -8 19 -10 16 -10 -13z"/>
<path d="M2330 491 c0 -4 18 -8 40 -8 22 0 40 4 40 8 0 5 -18 9 -40 9 -22 0
-40 -4 -40 -9z"/>
<path d="M2430 490 c0 -5 5 -10 10 -10 6 0 10 5 10 10 0 6 -4 10 -10 10 -5 0
-10 -4 -10 -10z"/>
<path d="M3598 495 c-2 -2 -113 -6 -247 -9 -134 -2 -246 -7 -249 -10 -5 -6 53
-7 560 -10 259 -1 332 6 193 18 -77 7 -253 14 -257 11z"/>
<path d="M1152 470 c0 -14 2 -19 5 -12 2 6 2 18 0 25 -3 6 -5 1 -5 -13z"/>
<path d="M2550 483 c107 -7 240 -7 240 0 0 4 -64 6 -142 5 -79 -1 -123 -3 -98
-5z"/>
<path d="M2807 478 c-6 -3 34 -8 89 -10 97 -3 112 -2 103 6 -7 7 -181 11 -192
4z"/>
<path d="M1381 464 c0 -11 3 -14 6 -6 3 7 2 16 -1 19 -3 4 -6 -2 -5 -13z"/>
<path d="M3030 470 c0 -5 5 -10 10 -10 6 0 10 5 10 10 0 6 -4 10 -10 10 -5 0
-10 -4 -10 -10z"/>
<path d="M3060 472 c0 -5 7 -9 15 -9 8 0 15 4 15 9 0 4 -7 8 -15 8 -8 0 -15
-4 -15 -8z"/>
<path d="M1302 425 c-1 -27 -5 -61 -7 -75 l-6 -25 11 25 c6 13 9 47 7 75 l-3
50 -2 -50z"/>
<path d="M1220 441 c0 -12 5 -21 10 -21 6 0 10 6 10 14 0 8 -4 18 -10 21 -5 3
-10 -3 -10 -14z"/>
<path d="M1733 449 c-21 -9 -28 -8 107 -15 52 -4 92 -3 89 0 -10 10 -176 22
-196 15z"/>
<path d="M3343 442 c-134 -1 -243 -6 -243 -10 0 -4 78 -7 173 -8 94 0 287 -3
427 -5 241 -5 259 -7 303 -28 26 -13 52 -31 57 -41 9 -16 60 -56 60 -46 0 14
-82 80 -126 101 -75 35 -194 42 -651 37z"/>
<path d="M4055 432 c17 -10 48 -25 70 -32 22 -7 54 -19 70 -27 28 -13 26 -14
-35 -9 -44 4 -60 3 -50 -4 8 -5 23 -10 32 -10 10 0 43 -11 74 -25 44 -19 64
-23 88 -17 l31 8 -34 7 c-42 9 -31 24 19 29 34 3 34 3 -28 27 -34 13 -90 30
-125 37 -76 17 -93 21 -120 29 -16 5 -13 1 8 -13z"/>
<path d="M1022 387 c-1 -30 -6 -73 -11 -97 -7 -31 -6 -39 2 -31 6 6 12 16 12
23 11 79 13 135 7 146 -5 7 -9 -9 -10 -41z"/>
<path d="M2783 433 c31 -2 83 -2 115 0 31 2 5 3 -58 3 -63 0 -89 -1 -57 -3z"/>
<path d="M1051 325 c-6 -58 -9 -110 -6 -115 3 -5 1 -11 -4 -14 -5 -4 -7 -22
-4 -41 4 -28 2 -35 -10 -35 -13 0 -15 8 -12 40 2 22 7 49 10 60 4 12 2 20 -5
20 -15 0 -18 -13 -24 -132 l-6 -108 30 0 c28 0 30 3 31 38 1 20 2 80 4 132 3
99 13 226 20 248 2 6 1 12 -4 12 -4 0 -13 -47 -20 -105z m-21 -265 c0 -27 -4
-50 -10 -50 -5 0 -10 23 -10 50 0 28 5 50 10 50 6 0 10 -22 10 -50z"/>
<path d="M1142 405 c0 -16 2 -22 5 -12 2 9 2 23 0 30 -3 6 -5 -1 -5 -18z"/>
<path d="M1410 414 c0 -8 5 -12 10 -9 6 3 10 10 10 16 0 5 -4 9 -10 9 -5 0
-10 -7 -10 -16z"/>
<path d="M1645 421 c-3 -5 -1 -12 5 -16 5 -3 10 1 10 9 0 18 -6 21 -15 7z"/>
<path d="M1965 420 c53 -18 270 -29 644 -35 200 -2 362 -3 360 -1 -6 6 -299
18 -544 22 -121 2 -233 6 -250 8 -16 3 -77 8 -135 11 -78 3 -97 2 -75 -5z"/>
<path d="M2988 423 c12 -2 30 -2 40 0 9 3 -1 5 -23 4 -22 0 -30 -2 -17 -4z"/>
<path d="M1100 391 c0 -17 2 -31 4 -31 8 0 13 51 5 56 -5 3 -9 -9 -9 -25z"/>
<path d="M1492 390 c0 -19 2 -27 5 -17 2 9 2 25 0 35 -3 9 -5 1 -5 -18z"/>
<path d="M1570 381 c0 -17 4 -31 9 -31 5 0 9 11 9 25 0 14 -4 28 -9 31 -5 3
-9 -9 -9 -25z"/>
<path d="M1770 400 c-19 -4 -30 -8 -25 -9 196 -30 645 -58 645 -41 0 6 -34 11
-82 12 -125 3 -163 5 -288 18 -63 6 -128 13 -145 14 -16 1 -39 5 -50 8 -11 3
-36 2 -55 -2z"/>
<path d="M3150 390 l-165 -6 240 -3 c132 -2 256 -5 275 -6 118 -9 408 -12 419
-6 19 12 -120 21 -329 21 -102 0 -205 1 -230 3 -25 1 -119 0 -210 -3z"/>
<path d="M1336 359 c-10 -48 -12 -89 -5 -89 4 0 9 24 11 53 5 57 2 73 -6 36z"/>
<path d="M1650 372 c0 -15 27 -22 73 -21 l42 2 -45 6 c-25 4 -51 10 -57 14 -7
5 -13 4 -13 -1z"/>
<path d="M1412 350 c0 -14 2 -19 5 -12 2 6 2 18 0 25 -3 6 -5 1 -5 -13z"/>
<path d="M3948 363 c6 -2 18 -2 25 0 6 3 1 5 -13 5 -14 0 -19 -2 -12 -5z"/>
<path d="M1133 325 c0 -22 2 -30 4 -17 2 12 2 30 0 40 -3 9 -5 -1 -4 -23z"/>
<path d="M1167 341 c-3 -12 -1 -24 4 -27 13 -8 24 25 12 37 -7 7 -12 3 -16
-10z"/>
<path d="M1774 349 c-2 -4 14 -9 36 -11 22 -2 40 -1 40 3 0 9 -70 17 -76 8z"/>
<path d="M2415 350 c-11 -5 42 -8 122 -7 79 1 143 5 143 10 0 10 -239 7 -265
-3z"/>
<path d="M1091 334 c0 -11 3 -14 6 -6 3 7 2 16 -1 19 -3 4 -6 -2 -5 -13z"/>
<path d="M1866 342 c-8 -13 53 -23 249 -37 124 -10 640 -12 617 -4 -10 4 -148
9 -307 12 -267 6 -404 14 -511 32 -25 4 -44 3 -48 -3z"/>
<path d="M2712 345 c9 -9 350 -16 344 -7 -3 5 -83 10 -177 11 -95 0 -170 -1
-167 -4z"/>
<path d="M3080 340 c-9 -5 36 -7 120 -4 74 3 137 7 139 10 9 9 -245 3 -259 -6z"/>
<path d="M3360 341 c0 -5 9 -7 20 -4 11 3 20 7 20 9 0 2 -9 4 -20 4 -11 0 -20
-4 -20 -9z"/>
<path d="M3417 338 c-7 -4 8 -8 33 -8 25 0 70 -2 100 -4 30 -2 125 -7 210 -10
85 -4 174 -9 198 -12 24 -3 42 -1 42 4 0 6 -37 15 -82 21 -97 13 -485 19 -501
9z"/>
<path d="M1605 330 c3 -5 8 -10 11 -10 2 0 4 5 4 10 0 6 -5 10 -11 10 -5 0 -7
-4 -4 -10z"/>
<path d="M4020 336 c0 -2 7 -7 16 -10 8 -3 12 -2 9 4 -6 10 -25 14 -25 6z"/>
<path d="M1252 305 c0 -16 2 -22 5 -12 2 9 2 23 0 30 -3 6 -5 -1 -5 -18z"/>
<path d="M1371 314 c0 -11 3 -14 6 -6 3 7 2 16 -1 19 -3 4 -6 -2 -5 -13z"/>
<path d="M1680 310 c-10 -7 5 -10 49 -10 35 0 62 2 60 4 -11 9 -96 14 -109 6z"/>
<path d="M1091 294 c0 -11 3 -14 6 -6 3 7 2 16 -1 19 -3 4 -6 -2 -5 -13z"/>
<path d="M4050 301 c0 -11 96 -104 113 -110 13 -5 -39 58 -80 97 -26 24 -33
27 -33 13z"/>
<path d="M1160 290 c0 -5 5 -10 11 -10 5 0 7 5 4 10 -3 6 -8 10 -11 10 -2 0
-4 -4 -4 -10z"/>
<path d="M1835 289 c17 -5 64 -12 105 -14 41 -3 92 -7 113 -10 20 -3 37 -2 37
3 0 4 -19 9 -42 10 -24 2 -70 7 -103 12 -33 6 -78 9 -100 9 -40 -1 -40 -1 -10
-10z"/>
<path d="M2763 294 c7 -7 507 -7 515 0 3 3 -113 6 -258 6 -145 0 -261 -3 -257
-6z"/>
<path d="M3348 293 c18 -2 45 -2 60 0 15 2 0 4 -33 4 -33 0 -45 -2 -27 -4z"/>
<path d="M3576 291 c-3 -4 70 -13 162 -20 276 -21 299 -22 277 -12 -11 5 -34
10 -52 10 -17 1 -34 5 -37 10 -3 5 -38 9 -78 10 -40 1 -117 3 -170 6 -54 2
-100 1 -102 -4z"/>
<path d="M1528 255 c-2 -19 0 -35 4 -35 4 0 8 16 8 35 0 19 -2 35 -4 35 -2 0
-6 -16 -8 -35z"/>
<path d="M3498 283 c12 -2 32 -2 45 0 12 2 2 4 -23 4 -25 0 -35 -2 -22 -4z"/>
<path d="M4243 283 c8 -13 57 -23 57 -12 0 5 -6 9 -14 9 -8 0 -22 3 -32 7 -11
4 -15 3 -11 -4z"/>
<path d="M1120 255 c0 -8 5 -15 10 -15 6 0 10 7 10 15 0 8 -4 15 -10 15 -5 0
-10 -7 -10 -15z"/>
<path d="M1440 245 c0 -14 5 -25 10 -25 6 0 10 11 10 25 0 14 -4 25 -10 25 -5
0 -10 -11 -10 -25z"/>
<path d="M1641 266 c7 -8 98 -10 105 -3 4 4 -19 7 -51 7 -32 0 -56 -2 -54 -4z"/>
<path d="M2140 258 c57 -10 640 -16 640 -5 0 4 -28 7 -62 8 -35 0 -189 1 -343
3 -172 2 -263 -1 -235 -6z"/>
<path d="M3160 260 c-41 -4 -99 -5 -127 -3 -29 3 -53 1 -53 -4 0 -6 140 -10
337 -11 185 -1 348 -3 362 -6 14 -3 55 -8 91 -11 36 -4 72 -8 82 -11 30 -9
188 -20 188 -13 0 3 -42 11 -92 18 -51 6 -124 16 -163 21 -38 5 -173 12 -298
15 -126 4 -234 8 -240 9 -7 2 -46 0 -87 -4z"/>
<path d="M1203 225 c0 -22 2 -30 4 -17 2 12 2 30 0 40 -3 9 -5 -1 -4 -23z"/>
<path d="M1240 250 c0 -5 5 -10 10 -10 6 0 10 5 10 10 0 6 -4 10 -10 10 -5 0
-10 -4 -10 -10z"/>
<path d="M1795 249 c125 -38 384 -51 1060 -52 336 0 669 -4 740 -8 73 -4 134
-3 139 2 6 5 -29 9 -85 10 -51 0 -105 2 -119 4 -29 4 -301 7 -630 7 -621 1
-762 5 -932 27 -177 22 -222 25 -173 10z"/>
<path d="M2790 248 c0 -5 38 -8 85 -8 47 0 85 3 85 8 0 4 -38 7 -85 7 -47 0
-85 -3 -85 -7z"/>
<path d="M1081 223 c-1 -25 2 -31 14 -27 10 4 12 10 7 18 -5 6 -12 18 -15 26
-3 8 -6 1 -6 -17z"/>
<path d="M1160 221 c0 -29 15 -33 16 -5 1 13 -2 24 -7 24 -5 0 -9 -9 -9 -19z"/>
<path d="M1320 210 c0 -16 2 -30 4 -30 2 0 6 14 8 30 3 17 1 30 -4 30 -4 0 -8
-13 -8 -30z"/>
<path d="M1282 193 c-1 -23 -5 -50 -8 -60 -5 -14 -4 -15 5 -7 8 7 11 30 8 60
-3 48 -3 48 -5 7z"/>
<path d="M4065 208 c4 -13 14 -27 21 -31 8 -4 14 -15 14 -22 0 -8 4 -15 8 -15
5 0 18 -9 30 -20 12 -12 22 -18 22 -14 0 14 -65 102 -83 114 -17 10 -18 9 -12
-12z"/>
<path d="M1120 200 c0 -14 -3 -35 -6 -47 -4 -13 -2 -23 4 -23 13 0 22 72 11
85 -5 5 -9 -1 -9 -15z"/>
<path d="M1236 205 c-3 -8 -1 -15 4 -15 6 0 10 7 10 15 0 8 -2 15 -4 15 -2 0
-6 -7 -10 -15z"/>
<path d="M1673 213 c9 -2 25 -2 35 0 9 3 1 5 -18 5 -19 0 -27 -2 -17 -5z"/>
<path d="M1760 205 c24 -8 225 -33 229 -29 9 8 -5 12 -54 18 -75 9 -192 16
-175 11z"/>
<path d="M1365 190 c-3 -5 -1 -10 4 -10 6 0 11 5 11 10 0 6 -2 10 -4 10 -3 0
-8 -4 -11 -10z"/>
<path d="M1481 184 c0 -11 3 -14 6 -6 3 7 2 16 -1 19 -3 4 -6 -2 -5 -13z"/>
<path d="M2005 182 c6 -6 28 -14 50 -18 67 -11 655 -13 655 -2 0 6 -92 9 -247
6 -226 -3 -376 4 -443 19 -18 4 -22 2 -15 -5z"/>
<path d="M1601 176 c9 -8 99 -13 99 -5 0 5 -23 9 -52 9 -28 0 -49 -2 -47 -4z"/>
<path d="M4175 170 c3 -5 8 -10 11 -10 2 0 4 5 4 10 0 6 -5 10 -11 10 -5 0 -7
-4 -4 -10z"/>
<path d="M1080 158 c0 -7 -3 -23 -6 -35 -4 -13 -2 -23 3 -23 5 0 10 16 11 35
2 19 0 35 -3 35 -3 0 -5 -6 -5 -12z"/>
<path d="M1192 150 c0 -14 2 -19 5 -12 2 6 2 18 0 25 -3 6 -5 1 -5 -13z"/>
<path d="M1362 150 c0 -14 2 -19 5 -12 2 6 2 18 0 25 -3 6 -5 1 -5 -13z"/>
<path d="M1728 163 c7 -3 16 -2 19 1 4 3 -2 6 -13 5 -11 0 -14 -3 -6 -6z"/>
<path d="M2729 159 c-10 -6 -7 -9 14 -9 29 0 35 5 14 13 -8 3 -20 1 -28 -4z"/>
<path d="M2945 160 c-93 -3 -147 -7 -120 -9 28 -2 54 -3 58 -2 4 1 133 1 285
1 356 0 517 -10 510 -32 -4 -11 -305 -12 -333 -2 -7 3 -16 1 -20 -5 -6 -11 2
-12 190 -17 87 -2 183 -19 171 -31 -3 -3 -61 -5 -128 -4 -123 1 -158 -8 -51
-15 107 -6 141 -14 146 -32 4 -16 5 -16 6 1 0 9 6 17 12 17 6 0 9 -7 5 -15 -5
-13 13 -15 123 -15 128 0 129 0 123 22 -3 12 -18 33 -34 46 -15 13 -28 30 -28
38 0 10 -13 14 -49 14 -37 0 -52 5 -62 19 -13 19 -30 20 -324 23 -170 2 -386
1 -480 -2z"/>
<path d="M1230 126 c0 -18 -3 -55 -7 -81 -4 -34 -3 -46 5 -41 6 4 9 13 6 20
-3 8 -1 17 4 20 6 3 8 23 5 45 -3 23 -1 41 6 45 16 10 14 26 -4 26 -10 0 -15
-10 -15 -34z"/>
<path d="M1781 156 c2 -2 27 -7 54 -10 28 -4 77 -11 110 -16 94 -15 207 -21
201 -12 -3 5 -25 9 -49 10 -24 1 -95 9 -157 17 -113 15 -167 19 -159 11z"/>
<path d="M1151 98 c1 -55 5 -50 11 15 2 20 0 37 -4 37 -4 0 -7 -24 -7 -52z"/>
<path d="M1317 143 c-4 -3 -7 -36 -7 -71 0 -36 3 -63 6 -60 4 5 13 138 9 138
-1 0 -5 -3 -8 -7z"/>
<path d="M1618 123 c12 -2 30 -2 40 0 9 3 -1 5 -23 4 -22 0 -30 -2 -17 -4z"/>
<path d="M1688 119 c14 -14 352 -47 340 -33 -5 4 -35 9 -67 11 -33 2 -110 9
-170 16 -61 7 -107 10 -103 6z"/>
<path d="M1108 102 c-3 -9 -1 -26 3 -37 6 -15 8 -11 8 18 1 40 -4 48 -11 19z"/>
<path d="M2174 108 c14 -10 392 -8 466 1 30 4 -65 7 -211 7 -147 -1 -262 -4
-255 -8z"/>
<path d="M2890 109 c-21 -4 -27 -7 -15 -9 24 -3 98 0 103 5 7 7 -56 10 -88 4z"/>
<path d="M3033 108 c-2 -5 33 -8 78 -8 45 0 80 3 77 6 -9 9 -149 10 -155 2z"/>
<path d="M3214 110 c-11 -4 5 -8 39 -9 31 0 57 3 57 8 0 10 -68 11 -96 1z"/>
<path d="M1190 87 c0 -14 -3 -40 -6 -58 -4 -19 -4 -31 0 -28 11 10 24 99 15
105 -5 3 -9 -6 -9 -19z"/>
<path d="M1272 90 c0 -14 2 -19 5 -12 2 6 2 18 0 25 -3 6 -5 1 -5 -13z"/>
<path d="M2813 103 c9 -2 23 -2 30 0 6 3 -1 5 -18 5 -16 0 -22 -2 -12 -5z"/>
<path d="M2990 102 c0 -5 7 -9 15 -9 8 0 15 4 15 9 0 4 -7 8 -15 8 -8 0 -15
-4 -15 -8z"/>
<path d="M1070 61 c0 -16 -3 -37 -7 -47 -4 -11 -2 -15 7 -12 13 4 21 88 8 88
-5 0 -8 -13 -8 -29z"/>
<path d="M1650 78 c0 -4 21 -8 48 -7 52 1 48 6 -10 11 -21 2 -38 0 -38 -4z"/>
<path d="M2058 73 c6 -2 18 -2 25 0 6 3 1 5 -13 5 -14 0 -19 -2 -12 -5z"/>
<path d="M2116 70 c15 -15 132 -25 274 -24 74 1 283 2 465 3 204 1 324 5 315
11 -9 5 -225 9 -505 9 -269 0 -505 2 -524 5 -21 3 -31 2 -25 -4z"/>
<path d="M1353 35 c0 -22 2 -30 4 -17 2 12 2 30 0 40 -3 9 -5 -1 -4 -23z"/>
<path d="M1770 61 c8 -5 42 -11 75 -15 33 -4 78 -9 100 -12 73 -9 27 8 -57 22
-97 16 -141 18 -118 5z"/>
<path d="M3204 58 c-3 -4 21 -8 52 -8 32 0 54 3 50 7 -10 10 -96 11 -102 1z"/>
<path d="M3320 60 c0 -5 25 -10 56 -10 34 0 53 4 49 10 -3 6 -28 10 -56 10
-27 0 -49 -4 -49 -10z"/>
<path d="M1271 44 c0 -11 3 -14 6 -6 3 7 2 16 -1 19 -3 4 -6 -2 -5 -13z"/>
<path d="M1538 43 c7 -3 16 -2 19 1 4 3 -2 6 -13 5 -11 0 -14 -3 -6 -6z"/>
<path d="M1106 24 c-4 -9 -4 -19 -1 -22 2 -3 7 3 11 12 4 9 4 19 1 22 -2 3 -7
-3 -11 -12z"/>
<path d="M1140 31 c0 -6 5 -13 10 -16 6 -3 10 1 10 9 0 9 -4 16 -10 16 -5 0
-10 -4 -10 -9z"/>
<path d="M2003 33 c9 -2 25 -2 35 0 9 3 1 5 -18 5 -19 0 -27 -2 -17 -5z"/>
<path d="M1705 20 c47 -13 115 -19 115 -10 0 8 -77 21 -119 19 -25 -1 -25 -1
4 -9z"/>
<path d="M2100 18 c46 -15 1140 -21 1140 -6 0 6 -177 8 -497 7 -274 -2 -538 0
-588 4 -75 5 -84 4 -55 -5z"/>
<path d="M1830 8 c0 -4 16 -8 35 -8 19 0 35 2 35 4 0 2 -16 6 -35 8 -19 2 -35
0 -35 -4z"/>
<path d="M3250 8 c0 -5 59 -8 132 -8 72 0 129 2 127 5 -9 8 -259 11 -259 3z"/>
</g>
</svg>
